<svg id="Layer_1" data-name="Layer 1" xmlns="http://www.w3.org/2000/svg" viewBox="0 0 47 47.00049">
  <defs>
    <style>
      .cls-1 {
        fill: gray;
      }
    </style>
  </defs>
  <title>Take Back</title>
  <g>
    <path class="cls-1" d="M421,274.3999a23.50024,23.50024,0,1,0,23.5,23.5A23.52653,23.52653,0,0,0,421,274.3999Zm0,45.00049a21.50024,21.50024,0,1,1,21.5-21.50049A21.525,21.525,0,0,1,421,319.40039Z" transform="translate(-397.5 -274.3999)"/>
    <path class="cls-1" d="M421,285.69092a12.21662,12.21662,0,0,0-12.16388,11.30939l-3.97479.00018,4.63721,4.63867L414.13721,297l-3.30109.00018A10.20643,10.20643,0,1,1,421,308.10938v2a12.20923,12.20923,0,0,0,0-24.41846Z" transform="translate(-397.5 -274.3999)"/>
  </g>
</svg>
