<svg xmlns="http://www.w3.org/2000/svg" xmlns:xlink="http://www.w3.org/1999/xlink" version="1.1" enable-background="new 0 0 1000 1000" xml:space="preserve" width="1000" height="1000" style=""><rect id="backgroundrect" width="100%" height="100%" x="0" y="0" fill="none" stroke="none"/>
<metadata> Svg Vector Icons : http://www.onlinewebfonts.com/icon </metadata>

<g class="currentLayer" style=""><title>Layer 1</title><g id="svg_1" class="selected" fill="#b6b6b6" fill-opacity="1"><path d="M461,345.3V406c39.6,0,76.8,15.4,104.7,43.3c28,27.9,43.7,62.3,43.7,101.9h61C670.4,436.1,576.3,345.3,461,345.3z M500,10C229.4,10,10,229.4,10,500c0,270.6,219.4,490,490,490c270.6,0,490-219.4,490-490C990,229.4,770.6,10,500,10z M501.7,961.1C248,961.1,42.3,755.4,42.3,501.7C42.3,248,248,42.3,501.7,42.3c253.7,0,459.4,205.7,459.4,459.4C961.1,755.4,755.4,961.1,501.7,961.1z M461.1,237.9v60.6c141,0,256.1,111.5,256.1,252.4h61C778.1,376.6,635.7,237.9,461.1,237.9z M526.2,491.1c-25-24.1-56.9-36.2-95.7-36.2c-12.2,0-21.7,3.9-28.6,11.9c-6.9,7.9-10.3,17.2-10.3,27.8c0,10.9,3.3,19.9,9.9,27c7.2,8.4,16.9,12.6,29.1,12.6c16.9,0,30.3,4.3,40.1,13.1c9.8,8.8,14.8,21.1,14.8,37c0,15.9-5.4,29.4-16.1,40.5c-10.8,11.1-23.5,16.6-38.1,16.6c-15,0-27.7-5.5-38.3-16.6c-10.6-11-13.6-24.5-13.6-40.4V389.7c0-13-4-23.2-11.8-30.4c-7.8-7.1-19.4-10.7-30.1-10.7c-10.7,0-20,3.6-27.9,10.7c-7.8,7.1-11.8,17.2-11.8,30.3v194.5c0,38.2,13,70.8,38.9,97.7c25.9,26.9,57.4,40.3,94.3,40.3c36.6,0,67.9-13.5,93.8-40.6c25.9-27,38.9-59.5,38.9-97.4C563.7,546.2,551.2,515.2,526.2,491.1z" id="svg_2" fill="#b6b6b6" fill-opacity="1"/></g></g></svg>