<svg xmlns="http://www.w3.org/2000/svg" xmlns:xlink="http://www.w3.org/1999/xlink" viewBox="0 0 1056.71 296.52"><defs><style>.cls-1{fill:url(#linear-gradient);}.cls-2{fill:url(#linear-gradient-2);}.cls-3{fill:url(#linear-gradient-3);}.cls-4{fill:url(#linear-gradient-4);}.cls-5{fill:url(#linear-gradient-5);}</style><linearGradient id="linear-gradient" x1="-94.35" y1="-276.88" x2="1182.44" y2="999.91" gradientUnits="userSpaceOnUse"><stop offset="0.01" stop-color="#ff8c00"/><stop offset="0.04" stop-color="#ff8000"/><stop offset="1" stop-color="#ffbe00"/></linearGradient><linearGradient id="linear-gradient-2" x1="-131.1" y1="-520.42" x2="1145.69" y2="756.37" xlink:href="#linear-gradient"/><linearGradient id="linear-gradient-3" x1="-167.84" y1="-763.96" x2="1108.95" y2="512.82" xlink:href="#linear-gradient"/><linearGradient id="linear-gradient-4" x1="-43.13" y1="-4.39" x2="1141.7" y2="1180.45" xlink:href="#linear-gradient"/><linearGradient id="linear-gradient-5" x1="-195.54" y1="-962.87" x2="1047.97" y2="280.64" xlink:href="#linear-gradient"/></defs><title>HOOLAsset 2mdpi</title><g id="Layer_2" data-name="Layer 2"><g id="Layer_1-2" data-name="Layer 1"><rect class="cls-1" x="235.59" y="0.72" width="191.09" height="295.8" rx="31.41" ry="31.41"/><rect class="cls-2" x="442.39" y="0.72" width="191.09" height="295.8" rx="31.41" ry="31.41"/><rect class="cls-3" x="649.19" y="0.72" width="191.09" height="295.8" rx="31.41" ry="31.41"/><path class="cls-4" d="M31.41,0h69.38V43.06h17.46V0h69.37A31.42,31.42,0,0,1,219,31.41v233.7a31.42,31.42,0,0,1-31.42,31.41H118.25V240.9H100.79v55.62H31.41A31.41,31.41,0,0,1,0,265.11V31.41A31.41,31.41,0,0,1,31.41,0Z"/><path class="cls-5" d="M887.41,0h69.37V191.93h99.93v73.18a31.42,31.42,0,0,1-31.42,31.41H887.41A31.42,31.42,0,0,1,856,265.11V31.41A31.42,31.42,0,0,1,887.41,0Z"/></g></g></svg>