<svg xmlns="http://www.w3.org/2000/svg" xmlns:xlink="http://www.w3.org/1999/xlink" viewBox="0 0 1263.51 296.52"><defs><style>.cls-1{fill:url(#linear-gradient);}.cls-2{fill:url(#linear-gradient-4);}</style><linearGradient id="linear-gradient" x1="-32.43" y1="148.62" x2="1215.96" y2="148.62" gradientUnits="userSpaceOnUse"><stop offset="0.01" stop-color="#ff4678"/><stop offset="1" stop-color="#ff8c46"/></linearGradient><linearGradient id="linear-gradient-4" x1="-32.43" y1="148.26" x2="1215.96" y2="148.26" xlink:href="#linear-gradient"/></defs><title>HOOLAsset 3mdpi</title><g id="Layer_2" data-name="Layer 2"><g id="Layer_1-2" data-name="Layer 1"><rect class="cls-1" x="235.59" y="0.72" width="191.09" height="295.8" rx="31.41" ry="31.41"/><rect class="cls-1" x="442.39" y="0.72" width="191.09" height="295.8" rx="31.41" ry="31.41"/><rect class="cls-1" x="649.19" y="0.72" width="191.09" height="295.8" rx="31.41" ry="31.41"/><path class="cls-2" d="M31.41,0h69.38V43.06h17.46V0h69.37A31.42,31.42,0,0,1,219,31.41v233.7a31.42,31.42,0,0,1-31.42,31.41H118.25V240.9H100.79v55.62H31.41A31.41,31.41,0,0,1,0,265.11V31.41A31.41,31.41,0,0,1,31.41,0Z"/><rect class="cls-1" x="855.99" y="0.72" width="191.09" height="295.8" rx="31.41" ry="31.41"/><path class="cls-2" d="M1094.21,0h69.37V191.93h99.93v73.18a31.42,31.42,0,0,1-31.42,31.41H1094.21a31.42,31.42,0,0,1-31.42-31.41V31.41A31.42,31.42,0,0,1,1094.21,0Z"/></g></g></svg>