<svg xmlns="http://www.w3.org/2000/svg" viewBox="0 0 33.3 33.31"><defs><style>.cls-1{fill:#FF8E00;}</style></defs><title>HOOLAsset 15mdpi</title><g id="Layer_2" data-name="Layer 2"><g id="Layer_1-2" data-name="Layer 1"><path class="cls-1" d="M33.3,18.65v-4H29.39a9.85,9.85,0,0,0-2-5.08L30,6.83,26.39,3.14,23.61,5.71a9.31,9.31,0,0,0-5-2V0H13.32V3.7a15.28,15.28,0,0,0-4.51,2L6.33,3.07,2.78,6.69,5.42,9.58a9.77,9.77,0,0,0-1.94,5.08H0v4H3.48a9.61,9.61,0,0,0,2,5.07L2.85,26.48l3.62,3.69,2.34-2.58a15.45,15.45,0,0,0,4.51,2v3.7h5.33v-3.7a9.23,9.23,0,0,0,5-2l2.7,2.61L30,26.62l-2.59-2.9a9.69,9.69,0,0,0,2-5.07ZM16.43,22.77a6.12,6.12,0,1,1,6.11-6.12A6.12,6.12,0,0,1,16.43,22.77Z"/></g></g></svg>