<svg xmlns="http://www.w3.org/2000/svg" xmlns:xlink="http://www.w3.org/1999/xlink" viewBox="0 0 849.91 296.52"><defs><style>.cls-1{fill:url(#linear-gradient);}.cls-2{fill:url(#linear-gradient-2);}.cls-3{fill:url(#linear-gradient-3);}.cls-4{fill:url(#linear-gradient-4);}</style><linearGradient id="linear-gradient" x1="-36.19" y1="-218.72" x2="963.19" y2="780.66" gradientUnits="userSpaceOnUse"><stop offset="0.01" stop-color="#0082dc"/><stop offset="1" stop-color="#8cc8ff"/></linearGradient><linearGradient id="linear-gradient-2" x1="-72.94" y1="-462.26" x2="926.44" y2="537.12" xlink:href="#linear-gradient"/><linearGradient id="linear-gradient-3" x1="10.84" y1="49.58" x2="938.25" y2="976.99" xlink:href="#linear-gradient"/><linearGradient id="linear-gradient-4" x1="-108.5" y1="-669.03" x2="864.84" y2="304.31" xlink:href="#linear-gradient"/></defs><title>HOOLAsset 1mdpi</title><g id="Layer_2" data-name="Layer 2"><g id="Layer_1-2" data-name="Layer 1"><rect class="cls-1" x="235.59" y="0.72" width="191.09" height="295.8" rx="31.41" ry="31.41"/><rect class="cls-2" x="442.39" y="0.72" width="191.09" height="295.8" rx="31.41" ry="31.41"/><path class="cls-3" d="M31.41,0h69.38V43.06h17.46V0h69.37A31.42,31.42,0,0,1,219,31.41v233.7a31.42,31.42,0,0,1-31.42,31.41H118.25V240.9H100.79v55.62H31.41A31.41,31.41,0,0,1,0,265.11V31.41A31.41,31.41,0,0,1,31.41,0Z"/><path class="cls-4" d="M680.61,0H750V191.93h99.93v73.18a31.42,31.42,0,0,1-31.42,31.41H680.61a31.42,31.42,0,0,1-31.42-31.41V31.41A31.42,31.42,0,0,1,680.61,0Z"/></g></g></svg>