<svg xmlns="http://www.w3.org/2000/svg" viewBox="0 0 17.13 27.06"><defs><style>.cls-1{fill:gray;}</style></defs><title>HOOLAsset 16mdpi</title><g id="Layer_2" data-name="Layer 2"><g id="Layer_1-2" data-name="Layer 1"><path class="cls-1" d="M5.69,18.46a11.81,11.81,0,0,1,.6-4.19,6.58,6.58,0,0,1,2-2.67,13.11,13.11,0,0,0,2-2.06A3.39,3.39,0,0,0,11,7.48c0-1.84-.79-2.75-2.37-2.75a2.19,2.19,0,0,0-1.76.8,3.35,3.35,0,0,0-.71,2.16H0A7.32,7.32,0,0,1,2.29,2,9.14,9.14,0,0,1,8.62,0,9.47,9.47,0,0,1,14.9,1.87,6.57,6.57,0,0,1,17.13,7.2a6.23,6.23,0,0,1-.6,2.75,9.25,9.25,0,0,1-1.93,2.53l-2.09,1.94a5,5,0,0,0-1.23,1.76,7.09,7.09,0,0,0-.39,2.28ZM5,24a2.82,2.82,0,0,1,1-2.21,3.51,3.51,0,0,1,2.43-.86,3.51,3.51,0,0,1,2.43.86,3,3,0,0,1,0,4.42,3.51,3.51,0,0,1-2.43.86,3.51,3.51,0,0,1-2.43-.86A2.82,2.82,0,0,1,5,24Z"/></g></g></svg>