<?xml version="1.0" encoding="utf-8"?>
<!-- Generator: Adobe Illustrator 17.1.0, SVG Export Plug-In . SVG Version: 6.00 Build 0)  -->
<!DOCTYPE svg PUBLIC "-//W3C//DTD SVG 1.1//EN" "http://www.w3.org/Graphics/SVG/1.1/DTD/svg11.dtd">
<svg version="1.1" id="Layer_1" xmlns="http://www.w3.org/2000/svg" xmlns:xlink="http://www.w3.org/1999/xlink" x="0px" y="0px"
	 viewBox="0 0 32.8 44.9" enable-background="new 0 0 32.8 44.9" xml:space="preserve">
<g>
	<g>
		<path fill="#656565" d="M28.5,14.6v-2.5C28.5,5.4,23.1,0,16.4,0C9.7,0,4.3,5.4,4.3,12.1v2.5C1.9,15,0,17,0,19.5v20.4
			c0,2.8,2.2,5,5,5h22.8c2.8,0,5-2.2,5-5V19.5C32.8,17,30.9,15,28.5,14.6z M18.4,31.2C18.5,31.3,18.5,31.3,18.4,31.2l0,5.3
			c0,0.7-0.6,1.3-1.3,1.3h-1.5c-0.7,0-1.3-0.6-1.3-1.3v-5.2c0,0,0-0.1,0-0.1c-1-0.7-1.7-1.8-1.7-3.1c0-2.1,1.7-3.7,3.7-3.7
			s3.7,1.7,3.7,3.7C20.1,29.4,19.4,30.6,18.4,31.2z M24.3,14.5H8.5v-2.4c0-4.3,3.5-7.9,7.9-7.9c4.3,0,7.9,3.5,7.9,7.9V14.5z"/>
	</g>
</g>
</svg>
