<svg id="Layer_1" data-name="Layer 1" xmlns="http://www.w3.org/2000/svg" xmlns:xlink="http://www.w3.org/1999/xlink" viewBox="0 0 160 240"><defs><style>.cls-1{fill:url(#linear-gradient);}.cls-2{fill:#fff;}</style><linearGradient id="linear-gradient" x1="-18.38909" y1="21.61091" x2="178.38909" y2="218.38909" gradientUnits="userSpaceOnUse"><stop offset="0.00513" stop-color="#027996"/><stop offset="1" stop-color="#7fc473"/></linearGradient></defs><title>Cards</title><rect class="cls-1" width="160" height="240" rx="5.5" ry="5.5"/><path class="cls-2" d="M35.26341,45.91861H13.00364V43.67252L25.18333,29.85416a31.97851,31.97851,0,0,0,4.19824-5.76172,9.60345,9.60345,0,0,0,1.1709-4.41895,7.1818,7.1818,0,0,0-1.97656-5.334,7.38112,7.38112,0,0,0-5.44336-1.96582,7.68283,7.68283,0,0,0-5.79687,2.29492,8.23193,8.23193,0,0,0-2.208,5.957H12.22239a11.17792,11.17792,0,0,1,1.35449-5.46875,9.74712,9.74712,0,0,1,3.85645-3.86914,11.44831,11.44831,0,0,1,5.69922-1.4043q4.88232,0,7.62793,2.56348a9.09116,9.09116,0,0,1,2.74609,6.98242,11.86225,11.86225,0,0,1-1.5498,5.44434,40.52285,40.52285,0,0,1-5.45508,7.373L16.59153,43.45279H35.26341Z"/><path class="cls-2" d="M148.06223,192.24088H125.80247v-2.24609l12.17969-13.81836a32.0129,32.0129,0,0,0,4.19824-5.76172,9.60413,9.60413,0,0,0,1.1709-4.41992,7.1818,7.1818,0,0,0-1.97656-5.334,7.38061,7.38061,0,0,0-5.44336-1.96484,7.67923,7.67923,0,0,0-5.79687,2.29492,8.23035,8.23035,0,0,0-2.208,5.957h-2.90527a11.17523,11.17523,0,0,1,1.35449-5.46875,9.7495,9.7495,0,0,1,3.85645-3.87012,11.4478,11.4478,0,0,1,5.69922-1.40332q4.88232,0,7.62793,2.5625a9.09116,9.09116,0,0,1,2.74609,6.98242,11.869,11.869,0,0,1-1.5498,5.44531,40.5902,40.5902,0,0,1-5.45508,7.373l-9.91016,11.20508h18.67188Z"/><path class="cls-2" d="M31.28938,64.77255a5.245,5.245,0,0,0-5.09791,4.03958l-1.68968,0V66.16832a5.259,5.259,0,1,0-1.95911.00268v2.64109l-1.71651,0a5.27615,5.27615,0,1,0,.07946,1.95906l1.63706,0v8.05567l-4.33648,0v2.27093l4.3365.00005,1.95911,0,4.3365.00005V78.82691l-4.33652-.00006h0V70.77117l1.61023,0a5.24242,5.24242,0,1,0,5.17736-5.99864Z"/><path class="cls-2" d="M144.088,211.09479a5.245,5.245,0,0,0-5.09791,4.03958l-1.68968,0v-2.64379a5.259,5.259,0,1,0-1.95911.00268v2.64109l-1.71651,0a5.27615,5.27615,0,1,0,.07946,1.95906l1.63706,0v8.05567l-4.33648,0V227.42l4.3365.00005,1.95911,0,4.3365.00005v-2.27093l-4.33652-.00006h0v-8.05567l1.61023,0a5.24242,5.24242,0,1,0,5.17736-5.99864Z"/></svg>