<svg id="Layer_1" data-name="Layer 1" xmlns="http://www.w3.org/2000/svg" xmlns:xlink="http://www.w3.org/1999/xlink" viewBox="0 0 160 240"><defs><style>.cls-1{fill:url(#linear-gradient);}.cls-2{fill:#fff;}</style><linearGradient id="linear-gradient" x1="-18.38909" y1="21.61091" x2="178.38909" y2="218.38909" gradientUnits="userSpaceOnUse"><stop offset="0.00513" stop-color="#7f4c9d"/><stop offset="1" stop-color="#c472ad"/></linearGradient></defs><title>Cards</title><rect class="cls-1" width="160" height="240" rx="5.5" ry="5.5"/><path class="cls-2" d="M35.26341,45.91879H13.00364V43.67269L25.18333,29.85433a31.97851,31.97851,0,0,0,4.19824-5.76172,9.60345,9.60345,0,0,0,1.1709-4.41895,7.1818,7.1818,0,0,0-1.97656-5.334,7.38112,7.38112,0,0,0-5.44336-1.96582,7.67923,7.67923,0,0,0-5.79687,2.29492,8.23193,8.23193,0,0,0-2.208,5.957H12.22239a11.17523,11.17523,0,0,1,1.35449-5.46875A9.75569,9.75569,0,0,1,17.43333,11.287a11.4478,11.4478,0,0,1,5.69922-1.40332q4.88232,0,7.62793,2.56348a9.09116,9.09116,0,0,1,2.74609,6.98242,11.86542,11.86542,0,0,1-1.5498,5.44434,40.5565,40.5565,0,0,1-5.45508,7.373L16.59153,43.453H35.26341Z"/><path class="cls-2" d="M148.06223,192.24008H125.80247V189.994l12.17969-13.81836a31.97851,31.97851,0,0,0,4.19824-5.76172,9.60345,9.60345,0,0,0,1.1709-4.41895,7.1818,7.1818,0,0,0-1.97656-5.334,7.38112,7.38112,0,0,0-5.44336-1.96582,7.68283,7.68283,0,0,0-5.79687,2.29492,8.23193,8.23193,0,0,0-2.208,5.957h-2.90527a11.17792,11.17792,0,0,1,1.35449-5.46875,9.74712,9.74712,0,0,1,3.85645-3.86914,11.44831,11.44831,0,0,1,5.69922-1.4043q4.88232,0,7.62793,2.56348a9.09116,9.09116,0,0,1,2.74609,6.98242,11.86225,11.86225,0,0,1-1.5498,5.44434,40.52285,40.52285,0,0,1-5.45508,7.373l-9.91016,11.20605h18.67188Z"/><polygon class="cls-2" points="23.509 56.485 12.281 68.431 23.509 80.375 34.736 68.431 23.509 56.485"/><polygon class="cls-2" points="136.307 202.808 125.08 214.753 136.307 226.698 147.535 214.753 136.307 202.808"/></svg>