<svg id="Layer_1" data-name="Layer 1" xmlns="http://www.w3.org/2000/svg" xmlns:xlink="http://www.w3.org/1999/xlink" viewBox="0 0 160 240"><defs><style>.cls-1{fill:url(#linear-gradient);}.cls-2{fill:#fff;}</style><linearGradient id="linear-gradient" x1="-18.38909" y1="21.61091" x2="178.38909" y2="218.38909" gradientUnits="userSpaceOnUse"><stop offset="0.00513" stop-color="#ed3973"/><stop offset="1" stop-color="#f58a4a"/></linearGradient></defs><title>Cards</title><rect class="cls-1" width="160" height="240" rx="5.5" ry="5.5"/><path class="cls-2" d="M35.26341,45.91868H13.00364V43.67259L25.18333,29.85423a31.97851,31.97851,0,0,0,4.19824-5.76172,9.60345,9.60345,0,0,0,1.1709-4.41895,7.1818,7.1818,0,0,0-1.97656-5.334,7.38112,7.38112,0,0,0-5.44336-1.96582,7.68283,7.68283,0,0,0-5.79687,2.29492,8.23193,8.23193,0,0,0-2.208,5.957H12.22239A11.17792,11.17792,0,0,1,13.57688,15.157a9.74712,9.74712,0,0,1,3.85645-3.86914,11.44831,11.44831,0,0,1,5.69922-1.4043q4.88232,0,7.62793,2.56348a9.09116,9.09116,0,0,1,2.74609,6.98242,11.86225,11.86225,0,0,1-1.5498,5.44434,40.52285,40.52285,0,0,1-5.45508,7.373L16.59153,43.45286H35.26341Z"/><path class="cls-2" d="M148.06223,192.24H125.80247v-2.24609l12.17969-13.81836a31.94421,31.94421,0,0,0,4.19824-5.76172,9.60277,9.60277,0,0,0,1.1709-4.418,7.18412,7.18412,0,0,0-1.97656-5.335,7.38506,7.38506,0,0,0-5.44336-1.96582A7.68283,7.68283,0,0,0,130.1345,160.99a8.23351,8.23351,0,0,0-2.208,5.957h-2.90527a11.17792,11.17792,0,0,1,1.35449-5.46875,9.75331,9.75331,0,0,1,3.85645-3.86914,11.44831,11.44831,0,0,1,5.69922-1.4043q4.88232,0,7.62793,2.56445a9.08971,9.08971,0,0,1,2.74609,6.98242,11.85869,11.85869,0,0,1-1.5498,5.44336,40.48926,40.48926,0,0,1-5.45508,7.373l-9.91016,11.207h18.67188Z"/><path class="cls-2" d="M29.8081,57.23181a6.89952,6.89952,0,0,0-6.29924,4.1995,6.90253,6.90253,0,0,0-6.29924-4.1995,6.17722,6.17722,0,0,0-6.29924,6.29924c0,4.94043,5.30956,8.75987,12.59848,16.09807,7.28892-7.3382,12.59848-11.15764,12.59848-16.09807A6.17722,6.17722,0,0,0,29.8081,57.23181Z"/><path class="cls-2" d="M142.60671,203.554a6.89952,6.89952,0,0,0-6.29924,4.1995,6.90253,6.90253,0,0,0-6.29924-4.1995,6.17722,6.17722,0,0,0-6.29924,6.29924c0,4.94043,5.30956,8.75987,12.59848,16.09807,7.28892-7.3382,12.59849-11.15764,12.59849-16.09807A6.17722,6.17722,0,0,0,142.60671,203.554Z"/></svg>