<svg id="Layer_1" data-name="Layer 1" xmlns="http://www.w3.org/2000/svg" xmlns:xlink="http://www.w3.org/1999/xlink" viewBox="0 0 160 240"><defs><style>.cls-1{fill:url(#linear-gradient);}.cls-2{fill:#fff;}</style><linearGradient id="linear-gradient" x1="-18.38909" y1="21.61091" x2="178.38909" y2="218.38909" gradientUnits="userSpaceOnUse"><stop offset="0.00513" stop-color="#0082dc"/><stop offset="1" stop-color="#8cc8ff"/></linearGradient></defs><title>Cards</title><rect class="cls-1" width="160" height="240" rx="5.5" ry="5.5"/><path class="cls-2" d="M35.26341,45.91863H13.00364V43.67254L25.18333,29.85418a31.97851,31.97851,0,0,0,4.19824-5.76172,9.60345,9.60345,0,0,0,1.1709-4.41895,7.1818,7.1818,0,0,0-1.97656-5.334,7.38112,7.38112,0,0,0-5.44336-1.96582,7.68283,7.68283,0,0,0-5.79687,2.29492,8.23193,8.23193,0,0,0-2.208,5.957H12.22239a11.17792,11.17792,0,0,1,1.35449-5.46875,9.74712,9.74712,0,0,1,3.85645-3.86914,11.44831,11.44831,0,0,1,5.69922-1.4043q4.88232,0,7.62793,2.56348a9.09116,9.09116,0,0,1,2.74609,6.98242,11.86225,11.86225,0,0,1-1.5498,5.44434,40.52285,40.52285,0,0,1-5.45508,7.373L16.59153,43.45281H35.26341Z"/><path class="cls-2" d="M148.06223,192.23992H125.80247v-2.24609l12.17969-13.81836a31.9442,31.9442,0,0,0,4.19824-5.76172,9.60277,9.60277,0,0,0,1.1709-4.418,7.18412,7.18412,0,0,0-1.97656-5.335,7.38506,7.38506,0,0,0-5.44336-1.96582,7.68283,7.68283,0,0,0-5.79687,2.29492,8.23351,8.23351,0,0,0-2.208,5.957h-2.90527a11.17792,11.17792,0,0,1,1.35449-5.46875,9.75331,9.75331,0,0,1,3.85645-3.86914,11.44831,11.44831,0,0,1,5.69922-1.4043q4.88232,0,7.62793,2.56445a9.08971,9.08971,0,0,1,2.74609,6.98242,11.85869,11.85869,0,0,1-1.5498,5.44336,40.48925,40.48925,0,0,1-5.45508,7.373l-9.91016,11.207h18.67188Z"/><path class="cls-2" d="M17.97966,75.77685a6.05611,6.05611,0,0,0,5.5292-3.68615A6.05871,6.05871,0,0,0,29.038,75.77683a5.42211,5.42211,0,0,0,5.5292-5.52922c0-4.3365-4.66048-7.689-11.05836-14.13019-6.3979,6.44117-11.0584,9.79373-11.0584,14.13023A5.42207,5.42207,0,0,0,17.97966,75.77685Z"/><path class="cls-2" d="M22.52919,69.99163V78.4725l-4.33648,0v2.27093l4.3365.00005,1.95911,0,4.3365.00005V78.47258l-4.33652-.00006h0V69.99165"/><path class="cls-2" d="M130.77826,222.09909a6.05611,6.05611,0,0,0,5.5292-3.68615,6.05871,6.05871,0,0,0,5.52919,3.68613,5.42211,5.42211,0,0,0,5.5292-5.52922c0-4.3365-4.66048-7.689-11.05836-14.13019-6.3979,6.44117-11.0584,9.79373-11.0584,14.13023A5.42207,5.42207,0,0,0,130.77826,222.09909Z"/><path class="cls-2" d="M135.32779,216.31386v8.48087l-4.33648,0v2.27093l4.3365.00005,1.95911,0,4.3365.00005v-2.27093l-4.33652-.00006h0v-8.48087"/></svg>