<svg id="Layer_1" data-name="Layer 1" xmlns="http://www.w3.org/2000/svg" xmlns:xlink="http://www.w3.org/1999/xlink" viewBox="0 0 160 240"><defs><style>.cls-1{fill:url(#linear-gradient);}.cls-2{fill:#fff;}</style><linearGradient id="linear-gradient" x1="-18.38909" y1="21.61091" x2="178.38909" y2="218.38909" gradientUnits="userSpaceOnUse"><stop offset="0.00513" stop-color="#027996"/><stop offset="1" stop-color="#7fc473"/></linearGradient></defs><title>Cards</title><rect class="cls-1" width="160" height="240" rx="5.5" ry="5.5"/><path class="cls-2" d="M19.4963,26.559h3.02734a10.14151,10.14151,0,0,0,4.39258-.8916A6.6939,6.6939,0,0,0,29.78438,23.226a6.50228,6.50228,0,0,0,.98828-3.57617,7.22929,7.22929,0,0,0-1.92773-5.34668,7.49875,7.49875,0,0,0-5.541-1.92871,7.94247,7.94247,0,0,0-5.60156,2.01367,6.88437,6.88437,0,0,0-2.18457,5.31055H12.58907a9.497,9.497,0,0,1,1.3916-5.041,9.354,9.354,0,0,1,3.85645-3.52832,11.95185,11.95185,0,0,1,5.4668-1.24512,10.619,10.619,0,0,1,7.61523,2.63672,9.478,9.478,0,0,1,2.7832,7.22656,7.70526,7.70526,0,0,1-1.623,4.72461,9.73586,9.73586,0,0,1-4.45508,3.23438A9.15277,9.15277,0,0,1,32.65255,30.892a8.67082,8.67082,0,0,1,1.708,5.38379A9.58494,9.58494,0,0,1,31.383,43.62444a11.1846,11.1846,0,0,1-7.957,2.7832,13.30011,13.30011,0,0,1-5.82129-1.26953A9.40024,9.40024,0,0,1,12.052,36.2758h2.92969a7.105,7.105,0,0,0,2.36719,5.53027A8.7253,8.7253,0,0,0,23.426,43.94182a8.38909,8.38909,0,0,0,5.89453-1.94043,7.26612,7.26612,0,0,0,2.11133-5.62793,6.64986,6.64986,0,0,0-2.28223-5.44434q-2.28223-1.87939-6.72363-1.87988H19.4963Z"/><path class="cls-2" d="M132.29512,172.88029h3.02734a10.15574,10.15574,0,0,0,4.39258-.89062,6.70049,6.70049,0,0,0,2.86816-2.44141,6.50559,6.50559,0,0,0,.98828-3.57715,7.2293,7.2293,0,0,0-1.92773-5.34668,7.50272,7.50272,0,0,0-5.541-1.92871,7.93874,7.93874,0,0,0-5.60156,2.01465,6.88082,6.88082,0,0,0-2.18457,5.30957H125.3879a9.497,9.497,0,0,1,1.3916-5.041,9.354,9.354,0,0,1,3.85645-3.52832,11.95185,11.95185,0,0,1,5.4668-1.24512,10.619,10.619,0,0,1,7.61523,2.63672,9.478,9.478,0,0,1,2.7832,7.22656,7.70321,7.70321,0,0,1-1.623,4.72461,9.72893,9.72893,0,0,1-4.45508,3.23438,9.14864,9.14864,0,0,1,5.02832,3.18652,8.668,8.668,0,0,1,1.708,5.38281,9.58494,9.58494,0,0,1-2.97754,7.34863,11.1846,11.1846,0,0,1-7.957,2.7832,13.28641,13.28641,0,0,1-5.82129-1.26953,9.39768,9.39768,0,0,1-5.55273-8.8623h2.92969a7.105,7.105,0,0,0,2.36719,5.53027,8.7253,8.7253,0,0,0,6.07715,2.13574,8.38456,8.38456,0,0,0,5.89453-1.94043,7.2647,7.2647,0,0,0,2.11133-5.62793,6.64986,6.64986,0,0,0-2.28223-5.44434q-2.28223-1.87939-6.72363-1.87988h-2.92969Z"/><path class="cls-2" d="M31.28938,64.77255a5.245,5.245,0,0,0-5.09791,4.03958l-1.68968,0V66.16832a5.259,5.259,0,1,0-1.95911.00268v2.64109l-1.71651,0a5.27615,5.27615,0,1,0,.07946,1.95906l1.63706,0v8.05567l-4.33648,0v2.27093l4.3365.00005,1.95911,0,4.3365.00005V78.82691l-4.33652-.00006h0V70.77117l1.61023,0a5.24242,5.24242,0,1,0,5.17736-5.99864Z"/><path class="cls-2" d="M144.088,211.09479a5.245,5.245,0,0,0-5.09791,4.03958l-1.68968,0v-2.64379a5.259,5.259,0,1,0-1.95911.00268v2.64109l-1.71651,0a5.27615,5.27615,0,1,0,.07946,1.95906l1.63706,0v8.05567l-4.33648,0V227.42l4.3365.00005,1.95911,0,4.3365.00005v-2.27093l-4.33652-.00006h0v-8.05567l1.61023,0a5.24242,5.24242,0,1,0,5.17736-5.99864Z"/></svg>