<svg id="Layer_1" data-name="Layer 1" xmlns="http://www.w3.org/2000/svg" xmlns:xlink="http://www.w3.org/1999/xlink" viewBox="0 0 160 240"><defs><style>.cls-1{fill:url(#linear-gradient);}.cls-2{fill:#fff;}</style><linearGradient id="linear-gradient" x1="-18.38909" y1="21.61091" x2="178.38909" y2="218.38909" gradientUnits="userSpaceOnUse"><stop offset="0.00513" stop-color="#ed3973"/><stop offset="1" stop-color="#f58a4a"/></linearGradient></defs><title>Cards</title><rect class="cls-1" width="160" height="240" rx="5.5" ry="5.5"/><path class="cls-2" d="M19.4963,26.55931h3.02734a10.14151,10.14151,0,0,0,4.39258-.8916,6.6939,6.6939,0,0,0,2.86816-2.44141,6.50459,6.50459,0,0,0,.98828-3.57617,7.22929,7.22929,0,0,0-1.92773-5.34668,7.49875,7.49875,0,0,0-5.541-1.92871,7.93811,7.93811,0,0,0-5.60156,2.01367A6.88294,6.88294,0,0,0,15.51778,19.699H12.58907a9.50284,9.50284,0,0,1,1.3916-5.042,9.35171,9.35171,0,0,1,3.85645-3.52734,11.95185,11.95185,0,0,1,5.4668-1.24512,10.619,10.619,0,0,1,7.61523,2.63672,9.478,9.478,0,0,1,2.7832,7.22656,7.70047,7.70047,0,0,1-1.623,4.72363,9.73065,9.73065,0,0,1-4.45508,3.23535,9.14744,9.14744,0,0,1,5.02832,3.18555,8.67082,8.67082,0,0,1,1.708,5.38379A9.58494,9.58494,0,0,1,31.383,43.62474a11.1846,11.1846,0,0,1-7.957,2.7832,13.30011,13.30011,0,0,1-5.82129-1.26953,9.40024,9.40024,0,0,1-5.55273-8.8623h2.92969a7.103,7.103,0,0,0,2.36719,5.5293A8.72137,8.72137,0,0,0,23.426,43.94212a8.38491,8.38491,0,0,0,5.89453-1.94141,7.26246,7.26246,0,0,0,2.11133-5.627,6.64856,6.64856,0,0,0-2.28223-5.44434Q26.86739,29.05,22.426,29.04954H19.4963Z"/><path class="cls-2" d="M132.29512,172.8806h3.02734a10.14151,10.14151,0,0,0,4.39258-.8916,6.6939,6.6939,0,0,0,2.86816-2.44141,6.50459,6.50459,0,0,0,.98828-3.57617,7.22929,7.22929,0,0,0-1.92773-5.34668,7.49875,7.49875,0,0,0-5.541-1.92871,7.93811,7.93811,0,0,0-5.60156,2.01367,6.88294,6.88294,0,0,0-2.18457,5.31055H125.3879a9.50284,9.50284,0,0,1,1.3916-5.042,9.35171,9.35171,0,0,1,3.85645-3.52734,11.95185,11.95185,0,0,1,5.4668-1.24512,10.619,10.619,0,0,1,7.61523,2.63672,9.478,9.478,0,0,1,2.7832,7.22656,7.70047,7.70047,0,0,1-1.623,4.72363,9.73065,9.73065,0,0,1-4.45508,3.23535,9.14744,9.14744,0,0,1,5.02832,3.18555,8.67082,8.67082,0,0,1,1.708,5.38379,9.58494,9.58494,0,0,1-2.97754,7.34863,11.1846,11.1846,0,0,1-7.957,2.7832,13.30011,13.30011,0,0,1-5.82129-1.26953,9.40024,9.40024,0,0,1-5.55273-8.8623h2.92969a7.103,7.103,0,0,0,2.36719,5.5293,8.72137,8.72137,0,0,0,6.07715,2.13672,8.38491,8.38491,0,0,0,5.89453-1.94141,7.26246,7.26246,0,0,0,2.11133-5.627,6.64856,6.64856,0,0,0-2.28223-5.44434q-2.28223-1.87939-6.72363-1.87988h-2.92969Z"/><path class="cls-2" d="M29.8081,57.23181a6.89952,6.89952,0,0,0-6.29924,4.1995,6.90253,6.90253,0,0,0-6.29924-4.1995,6.17722,6.17722,0,0,0-6.29924,6.29924c0,4.94043,5.30956,8.75987,12.59848,16.09807,7.28892-7.3382,12.59848-11.15764,12.59848-16.09807A6.17722,6.17722,0,0,0,29.8081,57.23181Z"/><path class="cls-2" d="M142.60671,203.554a6.89952,6.89952,0,0,0-6.29924,4.1995,6.90253,6.90253,0,0,0-6.29924-4.1995,6.17722,6.17722,0,0,0-6.29924,6.29924c0,4.94043,5.30956,8.75987,12.59848,16.09807,7.28892-7.3382,12.59849-11.15764,12.59849-16.09807A6.17722,6.17722,0,0,0,142.60671,203.554Z"/></svg>