<svg id="Layer_1" data-name="Layer 1" xmlns="http://www.w3.org/2000/svg" xmlns:xlink="http://www.w3.org/1999/xlink" viewBox="0 0 160 240"><defs><style>.cls-1{fill:url(#linear-gradient);}.cls-2{fill:#fff;}</style><linearGradient id="linear-gradient" x1="-18.38909" y1="21.61091" x2="178.38909" y2="218.38909" gradientUnits="userSpaceOnUse"><stop offset="0.00513" stop-color="#0082dc"/><stop offset="1" stop-color="#8cc8ff"/></linearGradient></defs><title>Cards</title><rect class="cls-1" width="160" height="240" rx="5.5" ry="5.5"/><path class="cls-2" d="M19.4963,26.55828h3.02734a10.15574,10.15574,0,0,0,4.39258-.89062,6.70049,6.70049,0,0,0,2.86816-2.44141,6.50459,6.50459,0,0,0,.98828-3.57617,7.23166,7.23166,0,0,0-1.92773-5.34766,7.50233,7.50233,0,0,0-5.541-1.92773,7.93811,7.93811,0,0,0-5.60156,2.01367,6.88294,6.88294,0,0,0-2.18457,5.31055H12.58907a9.50039,9.50039,0,0,1,1.3916-5.042,9.354,9.354,0,0,1,3.85645-3.52832,11.9513,11.9513,0,0,1,5.4668-1.24414,10.619,10.619,0,0,1,7.61523,2.63672,9.47653,9.47653,0,0,1,2.7832,7.22656,7.70047,7.70047,0,0,1-1.623,4.72363,9.73757,9.73757,0,0,1-4.45508,3.23535,9.14211,9.14211,0,0,1,5.02832,3.18555,8.67,8.67,0,0,1,1.708,5.38281A9.58565,9.58565,0,0,1,31.383,43.62469a11.1846,11.1846,0,0,1-7.957,2.7832,13.30011,13.30011,0,0,1-5.82129-1.26953A9.40033,9.40033,0,0,1,12.052,36.27508h2.92969a7.1036,7.1036,0,0,0,2.36719,5.53027A8.72077,8.72077,0,0,0,23.426,43.94109a8.38456,8.38456,0,0,0,5.89453-1.94043,7.26328,7.26328,0,0,0,2.11133-5.62793,6.64785,6.64785,0,0,0-2.28223-5.44336q-2.28223-1.88086-6.72363-1.88086H19.4963Z"/><path class="cls-2" d="M132.29512,172.88055h3.02734a10.14151,10.14151,0,0,0,4.39258-.8916,6.6939,6.6939,0,0,0,2.86816-2.44141,6.50459,6.50459,0,0,0,.98828-3.57617,7.2293,7.2293,0,0,0-1.92773-5.34668,7.49875,7.49875,0,0,0-5.541-1.92871,7.93811,7.93811,0,0,0-5.60156,2.01367,6.88294,6.88294,0,0,0-2.18457,5.31055H125.3879a9.50284,9.50284,0,0,1,1.3916-5.042,9.35171,9.35171,0,0,1,3.85645-3.52734,11.95186,11.95186,0,0,1,5.4668-1.24512,10.619,10.619,0,0,1,7.61523,2.63672,9.478,9.478,0,0,1,2.7832,7.22656,7.70047,7.70047,0,0,1-1.623,4.72363,9.73065,9.73065,0,0,1-4.45508,3.23535,9.14744,9.14744,0,0,1,5.02832,3.18555,8.67082,8.67082,0,0,1,1.708,5.38379,9.58494,9.58494,0,0,1-2.97754,7.34863,11.1846,11.1846,0,0,1-7.957,2.7832,13.30011,13.30011,0,0,1-5.82129-1.26953,9.40024,9.40024,0,0,1-5.55273-8.8623h2.92969a7.103,7.103,0,0,0,2.36719,5.5293,8.72137,8.72137,0,0,0,6.07715,2.13672,8.38491,8.38491,0,0,0,5.89453-1.94141,7.26246,7.26246,0,0,0,2.11133-5.627,6.64856,6.64856,0,0,0-2.28223-5.44434q-2.28223-1.87939-6.72363-1.87988h-2.92969Z"/><path class="cls-2" d="M17.97966,75.77685a6.05611,6.05611,0,0,0,5.5292-3.68615A6.05871,6.05871,0,0,0,29.038,75.77683a5.42211,5.42211,0,0,0,5.5292-5.52922c0-4.3365-4.66048-7.689-11.05836-14.13019-6.3979,6.44117-11.0584,9.79373-11.0584,14.13023A5.42207,5.42207,0,0,0,17.97966,75.77685Z"/><path class="cls-2" d="M22.52919,69.99163V78.4725l-4.33648,0v2.27093l4.3365.00005,1.95911,0,4.3365.00005V78.47258l-4.33652-.00006h0V69.99165"/><path class="cls-2" d="M130.77826,222.09909a6.05611,6.05611,0,0,0,5.5292-3.68615,6.05871,6.05871,0,0,0,5.52919,3.68613,5.42211,5.42211,0,0,0,5.5292-5.52922c0-4.3365-4.66048-7.689-11.05836-14.13019-6.3979,6.44117-11.0584,9.79373-11.0584,14.13023A5.42207,5.42207,0,0,0,130.77826,222.09909Z"/><path class="cls-2" d="M135.32779,216.31386v8.48087l-4.33648,0v2.27093l4.3365.00005,1.95911,0,4.3365.00005v-2.27093l-4.33652-.00006h0v-8.48087"/></svg>