<svg id="Layer_1" data-name="Layer 1" xmlns="http://www.w3.org/2000/svg" xmlns:xlink="http://www.w3.org/1999/xlink" viewBox="0 0 160 240"><defs><style>.cls-1{fill:url(#linear-gradient);}.cls-2{fill:#fff;}</style><linearGradient id="linear-gradient" x1="-18.38909" y1="21.61091" x2="178.38909" y2="218.38909" gradientUnits="userSpaceOnUse"><stop offset="0.00513" stop-color="#027996"/><stop offset="1" stop-color="#7fc473"/></linearGradient></defs><title>Cards</title><rect class="cls-1" width="160" height="240" rx="5.5" ry="5.5"/><path class="cls-2" d="M30.94463,34.46916h5.541V36.935h-5.541v8.98438H28.01592V36.935H11.29717V35.27483l16.4502-24.90234h3.19727Zm-16.05957,0H28.01592V14.15666L26.722,16.40276Z"/><path class="cls-2" d="M143.743,180.79045h5.541v2.46582h-5.541v8.98438h-2.92773v-8.98437H124.09649v-1.66016l16.44922-24.90234H143.743Zm-16.05859,0h13.13086V160.478l-1.29492,2.24609Z"/><path class="cls-2" d="M31.28938,64.77255a5.245,5.245,0,0,0-5.09791,4.03958l-1.68968,0V66.16832a5.259,5.259,0,1,0-1.95911.00268v2.64109l-1.71651,0a5.27615,5.27615,0,1,0,.07946,1.95906l1.63706,0v8.05567l-4.33648,0v2.27093l4.3365.00005,1.95911,0,4.3365.00005V78.82691l-4.33652-.00006h0V70.77117l1.61023,0a5.24242,5.24242,0,1,0,5.17736-5.99864Z"/><path class="cls-2" d="M144.088,211.09479a5.245,5.245,0,0,0-5.09791,4.03958l-1.68968,0v-2.64379a5.259,5.259,0,1,0-1.95911.00268v2.64109l-1.71651,0a5.27615,5.27615,0,1,0,.07946,1.95906l1.63706,0v8.05567l-4.33648,0V227.42l4.3365.00005,1.95911,0,4.3365.00005v-2.27093l-4.33652-.00006h0v-8.05567l1.61023,0a5.24242,5.24242,0,1,0,5.17736-5.99864Z"/></svg>