<svg id="Layer_1" data-name="Layer 1" xmlns="http://www.w3.org/2000/svg" xmlns:xlink="http://www.w3.org/1999/xlink" viewBox="0 0 160 240"><defs><style>.cls-1{fill:url(#linear-gradient);}.cls-2{fill:#fff;}</style><linearGradient id="linear-gradient" x1="-18.38909" y1="21.61091" x2="178.38909" y2="218.38909" gradientUnits="userSpaceOnUse"><stop offset="0.00513" stop-color="#7f4c9d"/><stop offset="1" stop-color="#c472ad"/></linearGradient></defs><title>Cards</title><rect class="cls-1" width="160" height="240" rx="5.5" ry="5.5"/><path class="cls-2" d="M30.94463,34.46859h5.541v2.46582h-5.541v8.98438H28.01592V36.93441H11.29717V35.27426l16.4502-24.90234h3.19727Zm-16.05957,0H28.01592V14.15609L26.722,16.40219Z"/><path class="cls-2" d="M143.743,180.79086h5.541v2.46582h-5.541v8.98438h-2.92773v-8.98437H124.09649v-1.66016l16.44922-24.90234H143.743Zm-16.05859,0h13.13086v-20.3125l-1.29492,2.24609Z"/><polygon class="cls-2" points="23.509 56.485 12.281 68.431 23.509 80.375 34.736 68.431 23.509 56.485"/><polygon class="cls-2" points="136.307 202.808 125.08 214.753 136.307 226.698 147.535 214.753 136.307 202.808"/></svg>