<svg id="Layer_1" data-name="Layer 1" xmlns="http://www.w3.org/2000/svg" xmlns:xlink="http://www.w3.org/1999/xlink" viewBox="0 0 160 240"><defs><style>.cls-1{fill:url(#linear-gradient);}.cls-2{fill:#fff;}</style><linearGradient id="linear-gradient" x1="-18.38909" y1="21.61091" x2="178.38909" y2="218.38909" gradientUnits="userSpaceOnUse"><stop offset="0.00513" stop-color="#027996"/><stop offset="1" stop-color="#7fc473"/></linearGradient></defs><title>Cards</title><rect class="cls-1" width="160" height="240" rx="5.5" ry="5.5"/><path class="cls-2" d="M14.98372,27.70647l1.73242-17.334H34.4847v2.71H19.22981L17.98567,25.09416a11.557,11.557,0,0,1,6.6875-1.95312,9.87734,9.87734,0,0,1,7.66406,3.125,11.8658,11.8658,0,0,1,2.85547,8.3252q0,5.61621-2.78223,8.71582-2.7832,3.10107-7.835,3.10059a10.81844,10.81844,0,0,1-7.51758-2.58789,10.57832,10.57832,0,0,1-3.29492-7.251h2.80664a8.4373,8.4373,0,0,0,2.46582,5.50586,7.91051,7.91051,0,0,0,5.54,1.86719,6.93271,6.93271,0,0,0,5.748-2.417q1.94092-2.417,1.94043-6.88477A9.2907,9.2907,0,0,0,30.09212,28.268a7.502,7.502,0,0,0-5.93164-2.46582,11.20793,11.20793,0,0,0-3.6123.52539,9.85247,9.85247,0,0,0-3.24609,2.03809Z"/><path class="cls-2" d="M127.78157,174.02678l1.73242-17.334h17.76855v2.71094H132.02766l-1.24414,12.01172a11.54986,11.54986,0,0,1,6.6875-1.95312,9.874,9.874,0,0,1,7.66406,3.125,11.86163,11.86163,0,0,1,2.85547,8.32422q0,5.61621-2.78223,8.7168-2.7832,3.09961-7.835,3.09961a10.81385,10.81385,0,0,1-7.51758-2.58789,10.57791,10.57791,0,0,1-3.29492-7.25h2.80664a8.43693,8.43693,0,0,0,2.46582,5.50488,7.911,7.911,0,0,0,5.54,1.86816,6.93329,6.93329,0,0,0,5.748-2.418q1.94092-2.417,1.94043-6.88477a9.28642,9.28642,0,0,0-2.17187-6.37109,7.49957,7.49957,0,0,0-5.93164-2.4668,11.20793,11.20793,0,0,0-3.6123.52539,9.84077,9.84077,0,0,0-3.24609,2.03906Z"/><path class="cls-2" d="M31.28938,64.77255a5.245,5.245,0,0,0-5.09791,4.03958l-1.68968,0V66.16832a5.259,5.259,0,1,0-1.95911.00268v2.64109l-1.71651,0a5.27615,5.27615,0,1,0,.07946,1.95906l1.63706,0v8.05567l-4.33648,0v2.27093l4.3365.00005,1.95911,0,4.3365.00005V78.82691l-4.33652-.00006h0V70.77117l1.61023,0a5.24242,5.24242,0,1,0,5.17736-5.99864Z"/><path class="cls-2" d="M144.088,211.09479a5.245,5.245,0,0,0-5.09791,4.03958l-1.68968,0v-2.64379a5.259,5.259,0,1,0-1.95911.00268v2.64109l-1.71651,0a5.27615,5.27615,0,1,0,.07946,1.95906l1.63706,0v8.05567l-4.33648,0V227.42l4.3365.00005,1.95911,0,4.3365.00005v-2.27093l-4.33652-.00006h0v-8.05567l1.61023,0a5.24242,5.24242,0,1,0,5.17736-5.99864Z"/></svg>