<svg id="Layer_1" data-name="Layer 1" xmlns="http://www.w3.org/2000/svg" xmlns:xlink="http://www.w3.org/1999/xlink" viewBox="0 0 160 240"><defs><style>.cls-1{fill:url(#linear-gradient);}.cls-2{fill:#fff;}</style><linearGradient id="linear-gradient" x1="-18.38909" y1="21.61091" x2="178.38909" y2="218.38909" gradientUnits="userSpaceOnUse"><stop offset="0.00513" stop-color="#7f4c9d"/><stop offset="1" stop-color="#c472ad"/></linearGradient></defs><title>Cards</title><rect class="cls-1" width="160" height="240" rx="5.5" ry="5.5"/><path class="cls-2" d="M14.98372,27.7069l1.73242-17.334H34.4847v2.71H19.22981L17.98567,25.0946a11.557,11.557,0,0,1,6.6875-1.95312,9.87734,9.87734,0,0,1,7.66406,3.125,11.86415,11.86415,0,0,1,2.85547,8.3252q0,5.61475-2.78223,8.71582-2.7832,3.10107-7.835,3.10059a10.81844,10.81844,0,0,1-7.51758-2.58789,10.58232,10.58232,0,0,1-3.29492-7.251h2.80664a8.43693,8.43693,0,0,0,2.46582,5.50488,7.911,7.911,0,0,0,5.54,1.86816,6.93271,6.93271,0,0,0,5.748-2.417q1.94092-2.417,1.94043-6.88477a9.28728,9.28728,0,0,0-2.17187-6.37207,7.502,7.502,0,0,0-5.93164-2.46582,11.20928,11.20928,0,0,0-3.6123.52441,9.87322,9.87322,0,0,0-3.24609,2.03906Z"/><path class="cls-2" d="M127.78157,174.02721l1.73242-17.334h17.76855v2.71H132.02766l-1.24414,12.01172a11.557,11.557,0,0,1,6.6875-1.95312,9.87734,9.87734,0,0,1,7.66406,3.125,11.8658,11.8658,0,0,1,2.85547,8.3252q0,5.61475-2.78223,8.71582-2.7832,3.10107-7.835,3.10059a10.81844,10.81844,0,0,1-7.51758-2.58789,10.58032,10.58032,0,0,1-3.29492-7.251h2.80664a8.43956,8.43956,0,0,0,2.46582,5.50586,7.915,7.915,0,0,0,5.54,1.86719,6.93271,6.93271,0,0,0,5.748-2.417q1.94092-2.417,1.94043-6.88477a9.289,9.289,0,0,0-2.17187-6.37207,7.502,7.502,0,0,0-5.93164-2.46582,11.20928,11.20928,0,0,0-3.6123.52441,9.87323,9.87323,0,0,0-3.24609,2.03906Z"/><polygon class="cls-2" points="23.509 56.485 12.281 68.431 23.509 80.375 34.736 68.431 23.509 56.485"/><polygon class="cls-2" points="136.307 202.808 125.08 214.753 136.307 226.698 147.535 214.753 136.307 202.808"/></svg>