<svg id="Layer_1" data-name="Layer 1" xmlns="http://www.w3.org/2000/svg" xmlns:xlink="http://www.w3.org/1999/xlink" viewBox="0 0 160 240"><defs><style>.cls-1{fill:url(#linear-gradient);}.cls-2{fill:#fff;}</style><linearGradient id="linear-gradient" x1="-18.38909" y1="21.61091" x2="178.38909" y2="218.38909" gradientUnits="userSpaceOnUse"><stop offset="0.00513" stop-color="#0082dc"/><stop offset="1" stop-color="#8cc8ff"/></linearGradient></defs><title>Cards</title><rect class="cls-1" width="160" height="240" rx="5.5" ry="5.5"/><path class="cls-2" d="M14.98372,27.70672l1.73242-17.334H34.4847v2.71H19.22981L17.98567,25.09441a11.557,11.557,0,0,1,6.6875-1.95312,9.87734,9.87734,0,0,1,7.66406,3.125,11.86415,11.86415,0,0,1,2.85547,8.3252q0,5.61475-2.78223,8.71582-2.7832,3.10107-7.835,3.10059A10.81844,10.81844,0,0,1,17.05794,43.82,10.58232,10.58232,0,0,1,13.763,36.569h2.80664a8.43693,8.43693,0,0,0,2.46582,5.50488,7.911,7.911,0,0,0,5.54,1.86816,6.93271,6.93271,0,0,0,5.748-2.417q1.94092-2.417,1.94043-6.88477a9.28728,9.28728,0,0,0-2.17187-6.37207,7.502,7.502,0,0,0-5.93164-2.46582,11.20928,11.20928,0,0,0-3.6123.52441,9.87322,9.87322,0,0,0-3.24609,2.03906Z"/><path class="cls-2" d="M127.78157,174.027l1.73242-17.334h17.76855v2.71H132.02766l-1.24414,12.01172a11.557,11.557,0,0,1,6.6875-1.95312,9.87734,9.87734,0,0,1,7.66406,3.125,11.86415,11.86415,0,0,1,2.85547,8.3252q0,5.61621-2.78223,8.71582-2.7832,3.10107-7.835,3.10059a10.81844,10.81844,0,0,1-7.51758-2.58789,10.58032,10.58032,0,0,1-3.29492-7.251h2.80664a8.43467,8.43467,0,0,0,2.46582,5.50488,7.90642,7.90642,0,0,0,5.54,1.86816,6.93271,6.93271,0,0,0,5.748-2.417q1.94092-2.417,1.94043-6.88477a9.289,9.289,0,0,0-2.17187-6.37207,7.502,7.502,0,0,0-5.93164-2.46582,11.20794,11.20794,0,0,0-3.6123.52539,9.85247,9.85247,0,0,0-3.24609,2.03809Z"/><path class="cls-2" d="M17.97966,75.77685a6.05611,6.05611,0,0,0,5.5292-3.68615A6.05871,6.05871,0,0,0,29.038,75.77683a5.42211,5.42211,0,0,0,5.5292-5.52922c0-4.3365-4.66048-7.689-11.05836-14.13019-6.3979,6.44117-11.0584,9.79373-11.0584,14.13023A5.42207,5.42207,0,0,0,17.97966,75.77685Z"/><path class="cls-2" d="M22.52919,69.99163V78.4725l-4.33648,0v2.27093l4.3365.00005,1.95911,0,4.3365.00005V78.47258l-4.33652-.00006h0V69.99165"/><path class="cls-2" d="M130.77826,222.09909a6.05611,6.05611,0,0,0,5.5292-3.68615,6.05871,6.05871,0,0,0,5.52919,3.68613,5.42211,5.42211,0,0,0,5.5292-5.52922c0-4.3365-4.66048-7.689-11.05836-14.13019-6.3979,6.44117-11.0584,9.79373-11.0584,14.13023A5.42207,5.42207,0,0,0,130.77826,222.09909Z"/><path class="cls-2" d="M135.32779,216.31386v8.48087l-4.33648,0v2.27093l4.3365.00005,1.95911,0,4.3365.00005v-2.27093l-4.33652-.00006h0v-8.48087"/></svg>