<svg id="Layer_1" data-name="Layer 1" xmlns="http://www.w3.org/2000/svg" xmlns:xlink="http://www.w3.org/1999/xlink" viewBox="0 0 160 240"><defs><style>.cls-1{fill:url(#linear-gradient);}.cls-2{fill:#fff;}</style><linearGradient id="linear-gradient" x1="-18.38909" y1="21.61091" x2="178.38909" y2="218.38909" gradientUnits="userSpaceOnUse"><stop offset="0.00513" stop-color="#027996"/><stop offset="1" stop-color="#7fc473"/></linearGradient></defs><title>Cards</title><rect class="cls-1" width="160" height="240" rx="5.5" ry="5.5"/><path class="cls-2" d="M30.23841,10.103V12.642h-.3418q-6.37061,0-10.03223,3.75391-3.66064,3.75586-4.05176,10.43164a9.91625,9.91625,0,0,1,3.73438-3.1377,11.40284,11.40284,0,0,1,5.07715-1.11035,9.318,9.318,0,0,1,7.457,3.23438,12.55626,12.55626,0,0,1,2.76953,8.459,14.652,14.652,0,0,1-1.293,6.25,9.85283,9.85283,0,0,1-9.22656,5.88477,10.45544,10.45544,0,0,1-8.29883-3.69922,14.093,14.093,0,0,1-3.19727-9.55859V30.22014q0-9.54492,4.34473-14.78223Q21.52455,10.2011,29.506,10.103ZM24.16029,25.11858a9.0088,9.0088,0,0,0-5.18652,1.64551,7.89981,7.89981,0,0,0-3.21,4.18066V33.433a11.60206,11.60206,0,0,0,2.37988,7.55859,7.60388,7.60388,0,0,0,6.1875,2.92578,6.67852,6.67852,0,0,0,5.52832-2.707,10.7681,10.7681,0,0,0,2.11133-6.82715,10.18082,10.18082,0,0,0-2.11133-6.72949A7.02884,7.02884,0,0,0,24.16029,25.11858Z"/><path class="cls-2" d="M143.03627,156.42522v2.53906h-.3418q-6.37061,0-10.03223,3.75391-3.66064,3.75439-4.05176,10.43066a9.91376,9.91376,0,0,1,3.73438-3.13672,11.40327,11.40327,0,0,1,5.07715-1.11133,9.3187,9.3187,0,0,1,7.457,3.23535,12.55626,12.55626,0,0,1,2.76953,8.459,14.6551,14.6551,0,0,1-1.293,6.25,9.84994,9.84994,0,0,1-9.22656,5.88379,10.45462,10.45462,0,0,1-8.29883-3.69824,14.093,14.093,0,0,1-3.19727-9.55859V176.5424q0-9.54492,4.34473-14.78223,4.34473-5.23682,12.32617-5.335Zm-6.07812,15.01465a9.00274,9.00274,0,0,0-5.18652,1.64648,7.89981,7.89981,0,0,0-3.21,4.18066v2.4873a11.59839,11.59839,0,0,0,2.37988,7.55859,7.60112,7.60112,0,0,0,6.1875,2.92578,6.68023,6.68023,0,0,0,5.52832-2.70605,10.7681,10.7681,0,0,0,2.11133-6.82715,10.179,10.179,0,0,0-2.11133-6.72949A7.0296,7.0296,0,0,0,136.95814,171.43987Z"/><path class="cls-2" d="M31.28938,64.77255a5.245,5.245,0,0,0-5.09791,4.03958l-1.68968,0V66.16832a5.259,5.259,0,1,0-1.95911.00268v2.64109l-1.71651,0a5.27615,5.27615,0,1,0,.07946,1.95906l1.63706,0v8.05567l-4.33648,0v2.27093l4.3365.00005,1.95911,0,4.3365.00005V78.82691l-4.33652-.00006h0V70.77117l1.61023,0a5.24242,5.24242,0,1,0,5.17736-5.99864Z"/><path class="cls-2" d="M144.088,211.09479a5.245,5.245,0,0,0-5.09791,4.03958l-1.68968,0v-2.64379a5.259,5.259,0,1,0-1.95911.00268v2.64109l-1.71651,0a5.27615,5.27615,0,1,0,.07946,1.95906l1.63706,0v8.05567l-4.33648,0V227.42l4.3365.00005,1.95911,0,4.3365.00005v-2.27093l-4.33652-.00006h0v-8.05567l1.61023,0a5.24242,5.24242,0,1,0,5.17736-5.99864Z"/></svg>