<svg id="Layer_1" data-name="Layer 1" xmlns="http://www.w3.org/2000/svg" xmlns:xlink="http://www.w3.org/1999/xlink" viewBox="0 0 160 240"><defs><style>.cls-1{fill:url(#linear-gradient);}.cls-2{fill:#fff;}</style><linearGradient id="linear-gradient" x1="-18.38909" y1="21.61091" x2="178.38909" y2="218.38909" gradientUnits="userSpaceOnUse"><stop offset="0.00513" stop-color="#7f4c9d"/><stop offset="1" stop-color="#c472ad"/></linearGradient></defs><title>Cards</title><rect class="cls-1" width="160" height="240" rx="5.5" ry="5.5"/><path class="cls-2" d="M30.23841,10.10338v2.53906h-.3418q-6.37061,0-10.03223,3.75391Q16.20375,20.15075,15.81263,26.827A9.91376,9.91376,0,0,1,19.547,23.6903,11.40327,11.40327,0,0,1,24.62416,22.579a9.318,9.318,0,0,1,7.457,3.23438,12.55892,12.55892,0,0,1,2.76953,8.46,14.6551,14.6551,0,0,1-1.293,6.25,9.854,9.854,0,0,1-9.22656,5.88379,10.45242,10.45242,0,0,1-8.29883-3.69922,14.08862,14.08862,0,0,1-3.19727-9.55762V30.22057q0-9.54639,4.34473-14.78223,4.34473-5.23828,12.32617-5.335ZM24.16029,25.118a9.00274,9.00274,0,0,0-5.18652,1.64648,7.89618,7.89618,0,0,0-3.21,4.18066v2.4873a11.60206,11.60206,0,0,0,2.37988,7.55859,7.60112,7.60112,0,0,0,6.1875,2.92578,6.67852,6.67852,0,0,0,5.52832-2.707,10.76334,10.76334,0,0,0,2.11133-6.82617,10.179,10.179,0,0,0-2.11133-6.72949A7.0296,7.0296,0,0,0,24.16029,25.118Z"/><path class="cls-2" d="M143.03627,156.42565v2.53906h-.3418q-6.37061,0-10.03223,3.75391-3.66064,3.75439-4.05176,10.43066a9.9251,9.9251,0,0,1,3.73438-3.1377,11.40284,11.40284,0,0,1,5.07715-1.11035,9.318,9.318,0,0,1,7.457,3.23438,12.55892,12.55892,0,0,1,2.76953,8.46,14.6551,14.6551,0,0,1-1.293,6.25,9.854,9.854,0,0,1-9.22656,5.88379,10.45544,10.45544,0,0,1-8.29883-3.69922,14.09036,14.09036,0,0,1-3.19727-9.55762v-2.92969q0-9.54639,4.34473-14.7832t12.32617-5.334Zm-6.07812,15.01465a9.0088,9.0088,0,0,0-5.18652,1.64551,7.902,7.902,0,0,0-3.21,4.18164v2.4873a11.60206,11.60206,0,0,0,2.37988,7.55859,7.60388,7.60388,0,0,0,6.1875,2.92578,6.67852,6.67852,0,0,0,5.52832-2.707,10.76429,10.76429,0,0,0,2.11133-6.82715,10.17806,10.17806,0,0,0-2.11133-6.72852A7.02673,7.02673,0,0,0,136.95814,171.4403Z"/><polygon class="cls-2" points="23.509 56.485 12.281 68.431 23.509 80.375 34.736 68.431 23.509 56.485"/><polygon class="cls-2" points="136.307 202.808 125.08 214.753 136.307 226.698 147.535 214.753 136.307 202.808"/></svg>