<svg id="Layer_1" data-name="Layer 1" xmlns="http://www.w3.org/2000/svg" xmlns:xlink="http://www.w3.org/1999/xlink" viewBox="0 0 160 240"><defs><style>.cls-1{fill:url(#linear-gradient);}.cls-2{fill:#fff;}</style><linearGradient id="linear-gradient" x1="-18.38909" y1="21.61091" x2="178.38909" y2="218.38909" gradientUnits="userSpaceOnUse"><stop offset="0.00513" stop-color="#0082dc"/><stop offset="1" stop-color="#8cc8ff"/></linearGradient></defs><title>Cards</title><rect class="cls-1" width="160" height="240" rx="5.5" ry="5.5"/><path class="cls-2" d="M30.23841,10.1032v2.53906h-.3418q-6.37061,0-10.03223,3.75391Q16.20375,20.152,15.81263,26.82781a9.91625,9.91625,0,0,1,3.73438-3.1377,11.40284,11.40284,0,0,1,5.07715-1.11035,9.318,9.318,0,0,1,7.457,3.23438,12.55626,12.55626,0,0,1,2.76953,8.459,14.652,14.652,0,0,1-1.293,6.25,9.85283,9.85283,0,0,1-9.22656,5.88477,10.45544,10.45544,0,0,1-8.29883-3.69922,14.093,14.093,0,0,1-3.19727-9.55859V30.22039q0-9.54492,4.34473-14.78223,4.34473-5.23682,12.32617-5.335ZM24.16029,25.11883a9.0088,9.0088,0,0,0-5.18652,1.64551,7.89981,7.89981,0,0,0-3.21,4.18066v2.48828a11.60206,11.60206,0,0,0,2.37988,7.55859,7.60388,7.60388,0,0,0,6.1875,2.92578,6.67852,6.67852,0,0,0,5.52832-2.707,10.7681,10.7681,0,0,0,2.11133-6.82715A10.18082,10.18082,0,0,0,29.85951,27.654,7.02884,7.02884,0,0,0,24.16029,25.11883Z"/><path class="cls-2" d="M143.03627,156.42547v2.53906h-.3418q-6.37061,0-10.03223,3.75391-3.66064,3.75439-4.05176,10.43066a9.91377,9.91377,0,0,1,3.73438-3.13672,11.40327,11.40327,0,0,1,5.07715-1.11133,9.3187,9.3187,0,0,1,7.457,3.23535,12.55626,12.55626,0,0,1,2.76953,8.459,14.65511,14.65511,0,0,1-1.293,6.25,9.84994,9.84994,0,0,1-9.22656,5.88379,10.45462,10.45462,0,0,1-8.29883-3.69824,14.093,14.093,0,0,1-3.19727-9.55859v-2.92969q0-9.54492,4.34473-14.78223,4.34473-5.23682,12.32617-5.335Zm-6.07812,15.01465a9.00274,9.00274,0,0,0-5.18652,1.64648,7.89981,7.89981,0,0,0-3.21,4.18066v2.4873a11.59839,11.59839,0,0,0,2.37988,7.55859,7.60112,7.60112,0,0,0,6.1875,2.92578,6.68023,6.68023,0,0,0,5.52832-2.70605,10.7681,10.7681,0,0,0,2.11133-6.82715,10.179,10.179,0,0,0-2.11133-6.72949A7.0296,7.0296,0,0,0,136.95814,171.44012Z"/><path class="cls-2" d="M17.97966,75.77685a6.05611,6.05611,0,0,0,5.5292-3.68615A6.05871,6.05871,0,0,0,29.038,75.77683a5.42211,5.42211,0,0,0,5.5292-5.52922c0-4.3365-4.66048-7.689-11.05836-14.13019-6.3979,6.44117-11.0584,9.79373-11.0584,14.13023A5.42207,5.42207,0,0,0,17.97966,75.77685Z"/><path class="cls-2" d="M22.52919,69.99163V78.4725l-4.33648,0v2.27093l4.3365.00005,1.95911,0,4.3365.00005V78.47258l-4.33652-.00006h0V69.99165"/><path class="cls-2" d="M130.77826,222.09909a6.05611,6.05611,0,0,0,5.5292-3.68615,6.05871,6.05871,0,0,0,5.52919,3.68613,5.42211,5.42211,0,0,0,5.5292-5.52922c0-4.3365-4.66048-7.689-11.05836-14.13019-6.3979,6.44117-11.0584,9.79373-11.0584,14.13023A5.42207,5.42207,0,0,0,130.77826,222.09909Z"/><path class="cls-2" d="M135.32779,216.31386v8.48087l-4.33648,0v2.27093l4.3365.00005,1.95911,0,4.3365.00005v-2.27093l-4.33652-.00006h0v-8.48087"/></svg>