<svg id="Layer_1" data-name="Layer 1" xmlns="http://www.w3.org/2000/svg" xmlns:xlink="http://www.w3.org/1999/xlink" viewBox="0 0 160 240"><defs><style>.cls-1{fill:url(#linear-gradient);}.cls-2{fill:#fff;}</style><linearGradient id="linear-gradient" x1="-18.38909" y1="21.61091" x2="178.38909" y2="218.38909" gradientUnits="userSpaceOnUse"><stop offset="0.00513" stop-color="#ed3973"/><stop offset="1" stop-color="#f58a4a"/></linearGradient></defs><title>Cards</title><rect class="cls-1" width="160" height="240" rx="5.5" ry="5.5"/><path class="cls-2" d="M34.89983,12.05608,19.71819,45.91936H16.66741l15.084-33.05664h-20.21V10.37249h23.3584Z"/><path class="cls-2" d="M147.69768,158.37835,132.516,192.24065h-3.05078l15.084-33.05664h-20.21v-2.49023h23.3584Z"/><path class="cls-2" d="M29.8081,57.23181a6.89952,6.89952,0,0,0-6.29924,4.1995,6.90253,6.90253,0,0,0-6.29924-4.1995,6.17722,6.17722,0,0,0-6.29924,6.29924c0,4.94043,5.30956,8.75987,12.59848,16.09807,7.28892-7.3382,12.59848-11.15764,12.59848-16.09807A6.17722,6.17722,0,0,0,29.8081,57.23181Z"/><path class="cls-2" d="M142.60671,203.554a6.89952,6.89952,0,0,0-6.29924,4.1995,6.90253,6.90253,0,0,0-6.29924-4.1995,6.17722,6.17722,0,0,0-6.29924,6.29924c0,4.94043,5.30956,8.75987,12.59848,16.09807,7.28892-7.3382,12.59849-11.15764,12.59849-16.09807A6.17722,6.17722,0,0,0,142.60671,203.554Z"/></svg>