<svg id="Layer_1" data-name="Layer 1" xmlns="http://www.w3.org/2000/svg" xmlns:xlink="http://www.w3.org/1999/xlink" viewBox="0 0 160 240"><defs><style>.cls-1{fill:url(#linear-gradient);}.cls-2{fill:#fff;}</style><linearGradient id="linear-gradient" x1="-18.38909" y1="21.61091" x2="178.38909" y2="218.38909" gradientUnits="userSpaceOnUse"><stop offset="0.00513" stop-color="#7f4c9d"/><stop offset="1" stop-color="#c472ad"/></linearGradient></defs><title>Cards</title><rect class="cls-1" width="160" height="240" rx="5.5" ry="5.5"/><path class="cls-2" d="M33.94931,19.52721A8.12109,8.12109,0,0,1,32.338,24.47155a9.37371,9.37371,0,0,1-4.248,3.21,10.41628,10.41628,0,0,1,4.93164,3.39355A8.48533,8.48533,0,0,1,34.87509,36.495a9.06752,9.06752,0,0,1-3.09961,7.23926,12.11511,12.11511,0,0,1-8.20117,2.67285A12.17624,12.17624,0,0,1,15.338,43.746a9.07237,9.07237,0,0,1-3.08789-7.251,8.74335,8.74335,0,0,1,1.78125-5.39551,9.8941,9.8941,0,0,1,4.88281-3.418,9.06592,9.06592,0,0,1-4.19922-3.21,8.29646,8.29646,0,0,1-1.5625-4.94434A9.08789,9.08789,0,0,1,15.99618,12.496a10.6968,10.6968,0,0,1,7.5293-2.6123,10.72266,10.72266,0,0,1,7.55469,2.63672A9.06205,9.06205,0,0,1,33.94931,19.52721Zm-2.002,16.99219a7.02188,7.02188,0,0,0-2.36719-5.45605,8.70033,8.70033,0,0,0-6.05469-2.13672,8.68762,8.68762,0,0,0-6.02734,2.09961,7.02735,7.02735,0,0,0-2.34375,5.49316,6.8676,6.8676,0,0,0,2.26953,5.4082,8.93514,8.93514,0,0,0,6.15039,2.01367,8.91054,8.91054,0,0,0,6.07813-2.002A6.82483,6.82483,0,0,0,31.94736,36.5194Zm-.92773-17.0166A6.7898,6.7898,0,0,0,28.90829,14.413a7.43054,7.43054,0,0,0-5.38281-2.03906,7.47583,7.47583,0,0,0-5.38086,1.96582,6.80459,6.80459,0,0,0-2.0625,5.16309,6.51963,6.51963,0,0,0,2.0625,5.0293,7.65177,7.65177,0,0,0,5.40625,1.9043,7.64163,7.64163,0,0,0,5.38086-1.916A6.48885,6.48885,0,0,0,31.01962,19.5028Z"/><path class="cls-2" d="M146.74618,165.8485a8.12109,8.12109,0,0,1-1.61133,4.94434,9.3682,9.3682,0,0,1-4.24609,3.21,10.401,10.401,0,0,1,4.92969,3.39355,8.487,8.487,0,0,1,1.85547,5.41992,9.06752,9.06752,0,0,1-3.09961,7.23926,14.00009,14.00009,0,0,1-16.43945.01172,9.07237,9.07237,0,0,1-3.08789-7.251,8.733,8.733,0,0,1,1.7832-5.39551,9.89735,9.89735,0,0,1,4.88086-3.418,9.06054,9.06054,0,0,1-4.19727-3.21,8.28325,8.28325,0,0,1-1.5625-4.94434,9.08116,9.08116,0,0,1,2.84375-7.03125,12.14894,12.14894,0,0,1,15.084.02441A9.06735,9.06735,0,0,1,146.74618,165.8485Zm-2.002,16.99219a7.02188,7.02188,0,0,0-2.36719-5.45605,9.67377,9.67377,0,0,0-12.082-.03711,7.02581,7.02581,0,0,0-2.3418,5.49316,6.8676,6.8676,0,0,0,2.26953,5.4082,10.31344,10.31344,0,0,0,12.22852.01172A6.82341,6.82341,0,0,0,144.74423,182.84069Zm-.92773-17.0166a6.78263,6.78263,0,0,0-2.11133-5.08984,8.23386,8.23386,0,0,0-10.76367-.07324,6.80459,6.80459,0,0,0-2.0625,5.16309,6.51963,6.51963,0,0,0,2.0625,5.0293,8.57246,8.57246,0,0,0,10.78906-.01172A6.494,6.494,0,0,0,143.8165,165.82409Z"/><polygon class="cls-2" points="23.509 56.485 12.281 68.431 23.509 80.375 34.736 68.431 23.509 56.485"/><polygon class="cls-2" points="136.307 202.808 125.08 214.753 136.307 226.698 147.535 214.753 136.307 202.808"/></svg>