<svg id="Layer_1" data-name="Layer 1" xmlns="http://www.w3.org/2000/svg" xmlns:xlink="http://www.w3.org/1999/xlink" viewBox="0 0 160 240"><defs><style>.cls-1{fill:url(#linear-gradient);}.cls-2{fill:#fff;}</style><linearGradient id="linear-gradient" x1="-18.38909" y1="21.61091" x2="178.38909" y2="218.38909" gradientUnits="userSpaceOnUse"><stop offset="0.00513" stop-color="#ed3973"/><stop offset="1" stop-color="#f58a4a"/></linearGradient></defs><title>Cards</title><rect class="cls-1" width="160" height="240" rx="5.5" ry="5.5"/><path class="cls-2" d="M33.94931,19.52776A8.12314,8.12314,0,0,1,32.338,24.4721a9.37371,9.37371,0,0,1-4.248,3.21,10.41628,10.41628,0,0,1,4.93164,3.39355,8.48533,8.48533,0,0,1,1.85352,5.41992,9.06414,9.06414,0,0,1-3.09961,7.23828,12.1106,12.1106,0,0,1-8.20117,2.67383A12.17624,12.17624,0,0,1,15.338,43.74651a9.07372,9.07372,0,0,1-3.08789-7.251A8.74335,8.74335,0,0,1,14.03134,31.1a9.888,9.888,0,0,1,4.88281-3.418,9.06592,9.06592,0,0,1-4.19922-3.21,8.29857,8.29857,0,0,1-1.5625-4.94434,9.085,9.085,0,0,1,2.84375-7.03125,10.6968,10.6968,0,0,1,7.5293-2.6123,10.72266,10.72266,0,0,1,7.55469,2.63672A9.06205,9.06205,0,0,1,33.94931,19.52776Zm-2.002,16.99219a7.02046,7.02046,0,0,0-2.36719-5.45605,8.70033,8.70033,0,0,0-6.05469-2.13672,8.68762,8.68762,0,0,0-6.02734,2.09961,7.026,7.026,0,0,0-2.34375,5.49316,6.86416,6.86416,0,0,0,2.26953,5.40723,8.93078,8.93078,0,0,0,6.15039,2.01465,8.91054,8.91054,0,0,0,6.07813-2.002A6.82756,6.82756,0,0,0,31.94736,36.51995Zm-.92773-17.0166a6.7898,6.7898,0,0,0-2.11133-5.08984,7.43054,7.43054,0,0,0-5.38281-2.03906,7.47936,7.47936,0,0,0-5.38086,1.96484,6.80678,6.80678,0,0,0-2.0625,5.16406,6.51963,6.51963,0,0,0,2.0625,5.0293,7.65177,7.65177,0,0,0,5.40625,1.9043,7.64163,7.64163,0,0,0,5.38086-1.916A6.48885,6.48885,0,0,0,31.01962,19.50335Z"/><path class="cls-2" d="M146.74618,165.849a8.1162,8.1162,0,0,1-1.61133,4.94336,9.37013,9.37013,0,0,1-4.24609,3.21094,10.401,10.401,0,0,1,4.92969,3.39355,8.487,8.487,0,0,1,1.85547,5.41992,9.06887,9.06887,0,0,1-3.09961,7.23926,14.00009,14.00009,0,0,1-16.43945.01172,9.07372,9.07372,0,0,1-3.08789-7.251,8.731,8.731,0,0,1,1.7832-5.39551,9.89735,9.89735,0,0,1,4.88086-3.418,9.06241,9.06241,0,0,1-4.19727-3.21094,8.27823,8.27823,0,0,1-1.5625-4.94336,9.08116,9.08116,0,0,1,2.84375-7.03125,12.14894,12.14894,0,0,1,15.084.02441A9.06735,9.06735,0,0,1,146.74618,165.849Zm-2.002,16.99219a7.02534,7.02534,0,0,0-2.36719-5.457,9.67551,9.67551,0,0,0-12.082-.03613,7.0244,7.0244,0,0,0-2.3418,5.49316,6.869,6.869,0,0,0,2.26953,5.4082,10.31344,10.31344,0,0,0,12.22852.01172A6.82341,6.82341,0,0,0,144.74423,182.84124Zm-.92773-17.0166a6.78478,6.78478,0,0,0-2.11133-5.09082,8.23537,8.23537,0,0,0-10.76367-.07227,6.80459,6.80459,0,0,0-2.0625,5.16309,6.52106,6.52106,0,0,0,2.0625,5.0293,8.57076,8.57076,0,0,0,10.78906-.0127A6.49191,6.49191,0,0,0,143.8165,165.82463Z"/><path class="cls-2" d="M29.8081,57.23181a6.89952,6.89952,0,0,0-6.29924,4.1995,6.90253,6.90253,0,0,0-6.29924-4.1995,6.17722,6.17722,0,0,0-6.29924,6.29924c0,4.94043,5.30956,8.75987,12.59848,16.09807,7.28892-7.3382,12.59848-11.15764,12.59848-16.09807A6.17722,6.17722,0,0,0,29.8081,57.23181Z"/><path class="cls-2" d="M142.60671,203.554a6.89952,6.89952,0,0,0-6.29924,4.1995,6.90253,6.90253,0,0,0-6.29924-4.1995,6.17722,6.17722,0,0,0-6.29924,6.29924c0,4.94043,5.30956,8.75987,12.59848,16.09807,7.28892-7.3382,12.59849-11.15764,12.59849-16.09807A6.17722,6.17722,0,0,0,142.60671,203.554Z"/></svg>