<svg id="Layer_1" data-name="Layer 1" xmlns="http://www.w3.org/2000/svg" xmlns:xlink="http://www.w3.org/1999/xlink" viewBox="0 0 160 240"><defs><style>.cls-1{fill:url(#linear-gradient);}.cls-2{fill:#fff;}</style><linearGradient id="linear-gradient" x1="-18.38909" y1="21.61091" x2="178.38909" y2="218.38909" gradientUnits="userSpaceOnUse"><stop offset="0.00513" stop-color="#0082dc"/><stop offset="1" stop-color="#8cc8ff"/></linearGradient></defs><title>Cards</title><rect class="cls-1" width="160" height="240" rx="5.5" ry="5.5"/><path class="cls-2" d="M33.94931,19.528A8.11825,8.11825,0,0,1,32.338,24.47137a9.37565,9.37565,0,0,1-4.248,3.21094,10.41628,10.41628,0,0,1,4.93164,3.39355,8.48533,8.48533,0,0,1,1.85352,5.41992,9.0655,9.0655,0,0,1-3.09961,7.23828,12.11555,12.11555,0,0,1-8.20117,2.67383A12.17624,12.17624,0,0,1,15.338,43.74676a9.07507,9.07507,0,0,1-3.08789-7.251,8.74134,8.74134,0,0,1,1.78125-5.39551,9.888,9.888,0,0,1,4.88281-3.418,9.06779,9.06779,0,0,1-4.19922-3.21094,8.29354,8.29354,0,0,1-1.5625-4.94336,9.085,9.085,0,0,1,2.84375-7.03125,10.6968,10.6968,0,0,1,7.5293-2.6123,10.72266,10.72266,0,0,1,7.55469,2.63672A9.06205,9.06205,0,0,1,33.94931,19.528Zm-2.002,16.99219a7.02392,7.02392,0,0,0-2.36719-5.457,8.69972,8.69972,0,0,0-6.05469-2.13574A8.68762,8.68762,0,0,0,17.49814,31.027a7.02454,7.02454,0,0,0-2.34375,5.49316,6.86554,6.86554,0,0,0,2.26953,5.40723,8.93554,8.93554,0,0,0,6.15039,2.01465,8.91054,8.91054,0,0,0,6.07813-2.002A6.82756,6.82756,0,0,0,31.94736,36.52019Zm-.92773-17.0166a6.792,6.792,0,0,0-2.11133-5.09082,7.43387,7.43387,0,0,0-5.38281-2.03809,7.47936,7.47936,0,0,0-5.38086,1.96484,6.80678,6.80678,0,0,0-2.0625,5.16406,6.52106,6.52106,0,0,0,2.0625,5.0293,7.65177,7.65177,0,0,0,5.40625,1.9043,7.63785,7.63785,0,0,0,5.38086-1.917A6.48675,6.48675,0,0,0,31.01962,19.50359Z"/><path class="cls-2" d="M146.74618,165.8493a8.11825,8.11825,0,0,1-1.61133,4.94336,9.37013,9.37013,0,0,1-4.24609,3.21094,10.401,10.401,0,0,1,4.92969,3.39355,8.487,8.487,0,0,1,1.85547,5.41992,9.0655,9.0655,0,0,1-3.09961,7.23828,13.998,13.998,0,0,1-16.43945.0127,9.07507,9.07507,0,0,1-3.08789-7.251,8.731,8.731,0,0,1,1.7832-5.39551,9.89122,9.89122,0,0,1,4.88086-3.418,9.06241,9.06241,0,0,1-4.19727-3.21094,8.28033,8.28033,0,0,1-1.5625-4.94336A9.07832,9.07832,0,0,1,128.795,158.818a12.14894,12.14894,0,0,1,15.084.02441A9.06735,9.06735,0,0,1,146.74618,165.8493Zm-2.002,16.99219a7.02392,7.02392,0,0,0-2.36719-5.457,9.67551,9.67551,0,0,0-12.082-.03613,7.023,7.023,0,0,0-2.3418,5.49316,6.86554,6.86554,0,0,0,2.26953,5.40723,10.31144,10.31144,0,0,0,12.22852.0127A6.82614,6.82614,0,0,0,144.74423,182.84148Zm-.92773-17.0166a6.78478,6.78478,0,0,0-2.11133-5.09082,8.2369,8.2369,0,0,0-10.76367-.07324,6.80678,6.80678,0,0,0-2.0625,5.16406,6.52106,6.52106,0,0,0,2.0625,5.0293,8.57076,8.57076,0,0,0,10.78906-.0127A6.49191,6.49191,0,0,0,143.8165,165.82488Z"/><path class="cls-2" d="M17.97966,75.77685a6.05611,6.05611,0,0,0,5.5292-3.68615A6.05871,6.05871,0,0,0,29.038,75.77683a5.42211,5.42211,0,0,0,5.5292-5.52922c0-4.3365-4.66048-7.689-11.05836-14.13019-6.3979,6.44117-11.0584,9.79373-11.0584,14.13023A5.42207,5.42207,0,0,0,17.97966,75.77685Z"/><path class="cls-2" d="M22.52919,69.99163V78.4725l-4.33648,0v2.27093l4.3365.00005,1.95911,0,4.3365.00005V78.47258l-4.33652-.00006h0V69.99165"/><path class="cls-2" d="M130.77826,222.09909a6.05611,6.05611,0,0,0,5.5292-3.68615,6.05871,6.05871,0,0,0,5.52919,3.68613,5.42211,5.42211,0,0,0,5.5292-5.52922c0-4.3365-4.66048-7.689-11.05836-14.13019-6.3979,6.44117-11.0584,9.79373-11.0584,14.13023A5.42207,5.42207,0,0,0,130.77826,222.09909Z"/><path class="cls-2" d="M135.32779,216.31386v8.48087l-4.33648,0v2.27093l4.3365.00005,1.95911,0,4.3365.00005v-2.27093l-4.33652-.00006h0v-8.48087"/></svg>