<svg id="Layer_1" data-name="Layer 1" xmlns="http://www.w3.org/2000/svg" xmlns:xlink="http://www.w3.org/1999/xlink" viewBox="0 0 160 240"><defs><style>.cls-1{fill:url(#linear-gradient);}.cls-2{fill:#fff;}</style><linearGradient id="linear-gradient" x1="-18.38909" y1="21.61091" x2="178.38909" y2="218.38909" gradientUnits="userSpaceOnUse"><stop offset="0.00513" stop-color="#027996"/><stop offset="1" stop-color="#7fc473"/></linearGradient></defs><title>Cards</title><rect class="cls-1" width="160" height="240" rx="5.5" ry="5.5"/><path class="cls-2" d="M31.23828,29.46451a10.99032,10.99032,0,0,1-3.88086,3.55176,10.37351,10.37351,0,0,1-5.02734,1.25781,9.33591,9.33591,0,0,1-5.3457-1.5625,10.22205,10.22205,0,0,1-3.58789-4.32129A14.242,14.242,0,0,1,12.127,22.36a14.85729,14.85729,0,0,1,1.35449-6.39648,10.64326,10.64326,0,0,1,3.7832-4.48047,9.95764,9.95764,0,0,1,5.60156-1.59863,10.03009,10.03009,0,0,1,8.32324,3.74707Q34.16748,17.38,34.167,24.26432V26.901q0,9.61963-4.09961,14.45313-4.10156,4.834-12.52148,4.834h-.53711l.02441-2.53906h1.02539Q24.4292,43.5524,27.748,40.0358,31.06738,36.52018,31.23828,29.46451Zm-8.542,2.27051a8.56793,8.56793,0,0,0,5.25977-1.74121,9.40852,9.40852,0,0,0,3.30664-4.51758V23.79557q0-5.40527-2.25781-8.38867A7.24185,7.24185,0,0,0,22.915,12.4235a6.954,6.954,0,0,0-5.68652,2.78809,10.92539,10.92539,0,0,0-2.2207,7.02539,10.62922,10.62922,0,0,0,2.13574,6.7832A6.73527,6.73527,0,0,0,22.69629,31.735Z"/><path class="cls-2" d="M144.03613,175.7858a10.9932,10.9932,0,0,1-3.88086,3.55273,10.38353,10.38353,0,0,1-5.02734,1.25684,9.33591,9.33591,0,0,1-5.3457-1.5625,10.21616,10.21616,0,0,1-3.58789-4.32129,14.242,14.242,0,0,1-1.26953-6.03027,14.85729,14.85729,0,0,1,1.35449-6.39648,10.64042,10.64042,0,0,1,3.7832-4.47949,10.9189,10.9189,0,0,1,13.9248,2.14844q2.978,3.74707,2.97754,10.63184v2.63672q0,9.61963-4.09961,14.45313-4.10156,4.834-12.52148,4.834h-.53711l.02441-2.53906h1.02539q6.37061-.09668,9.68945-3.61328Q143.86523,182.84146,144.03613,175.7858Zm-8.542,2.27051a8.56793,8.56793,0,0,0,5.25977-1.74121,9.3994,9.3994,0,0,0,3.30664-4.51758v-1.67969q0-5.40674-2.25781-8.38965a7.24185,7.24185,0,0,0-6.08984-2.9834,6.95227,6.95227,0,0,0-5.68652,2.78906,10.92165,10.92165,0,0,0-2.2207,7.02539,10.6283,10.6283,0,0,0,2.13574,6.78223A6.73527,6.73527,0,0,0,135.49414,178.05631Z"/><path class="cls-2" d="M31.28938,64.77255a5.245,5.245,0,0,0-5.09791,4.03958l-1.68968,0V66.16832a5.259,5.259,0,1,0-1.95911.00268v2.64109l-1.71651,0a5.27615,5.27615,0,1,0,.07946,1.95906l1.63706,0v8.05567l-4.33648,0v2.27093l4.3365.00005,1.95911,0,4.3365.00005V78.82691l-4.33652-.00006h0V70.77117l1.61023,0a5.24242,5.24242,0,1,0,5.17736-5.99864Z"/><path class="cls-2" d="M144.088,211.09479a5.245,5.245,0,0,0-5.09791,4.03958l-1.68968,0v-2.64379a5.259,5.259,0,1,0-1.95911.00268v2.64109l-1.71651,0a5.27615,5.27615,0,1,0,.07946,1.95906l1.63706,0v8.05567l-4.33648,0V227.42l4.3365.00005,1.95911,0,4.3365.00005v-2.27093l-4.33652-.00006h0v-8.05567l1.61023,0a5.24242,5.24242,0,1,0,5.17736-5.99864Z"/></svg>