<svg id="Layer_1" data-name="Layer 1" xmlns="http://www.w3.org/2000/svg" xmlns:xlink="http://www.w3.org/1999/xlink" viewBox="0 0 160 240"><defs><style>.cls-1{fill:url(#linear-gradient);}.cls-2{fill:#fff;}</style><linearGradient id="linear-gradient" x1="-18.38909" y1="21.61091" x2="178.38909" y2="218.38909" gradientUnits="userSpaceOnUse"><stop offset="0.00513" stop-color="#7f4c9d"/><stop offset="1" stop-color="#c472ad"/></linearGradient></defs><title>Cards</title><rect class="cls-1" width="160" height="240" rx="5.5" ry="5.5"/><path class="cls-2" d="M31.23828,29.46471a10.99032,10.99032,0,0,1-3.88086,3.55176,10.37351,10.37351,0,0,1-5.02734,1.25781,9.33591,9.33591,0,0,1-5.3457-1.5625,10.228,10.228,0,0,1-3.58789-4.32129A14.2452,14.2452,0,0,1,12.127,22.36022a14.85729,14.85729,0,0,1,1.35449-6.39648,10.63735,10.63735,0,0,1,3.7832-4.48047,9.95764,9.95764,0,0,1,5.60156-1.59863,10.03009,10.03009,0,0,1,8.32324,3.74707q2.978,3.74854,2.97754,10.63281v2.63672q0,9.61963-4.09961,14.45313-4.10156,4.834-12.52148,4.834h-.53711l.02441-2.53906h1.02539Q24.4292,43.55114,27.748,40.036,31.06738,36.52038,31.23828,29.46471Zm-8.542,2.27051A8.56793,8.56793,0,0,0,27.95605,29.994a9.40852,9.40852,0,0,0,3.30664-4.51758V23.79577q0-5.40527-2.25781-8.38965A7.241,7.241,0,0,0,22.915,12.4237a6.954,6.954,0,0,0-5.68652,2.78809,10.92539,10.92539,0,0,0-2.2207,7.02539,10.62452,10.62452,0,0,0,2.13574,6.78223A6.73617,6.73617,0,0,0,22.69629,31.73522Z"/><path class="cls-2" d="M144.03613,175.786a10.9932,10.9932,0,0,1-3.88086,3.55273,10.38353,10.38353,0,0,1-5.02734,1.25684,9.33591,9.33591,0,0,1-5.3457-1.5625,10.22205,10.22205,0,0,1-3.58789-4.32129,14.2452,14.2452,0,0,1-1.26953-6.03027,14.85729,14.85729,0,0,1,1.35449-6.39648,10.63451,10.63451,0,0,1,3.7832-4.47949,10.9189,10.9189,0,0,1,13.9248,2.14844q2.978,3.74707,2.97754,10.63184v2.63672q0,9.61963-4.09961,14.45313-4.10156,4.834-12.52148,4.834h-.53711l.02441-2.53906h1.02539q6.37061-.09814,9.68945-3.61328Q143.86523,182.84167,144.03613,175.786Zm-8.542,2.27051a8.56793,8.56793,0,0,0,5.25977-1.74121,9.3994,9.3994,0,0,0,3.30664-4.51758V170.118q0-5.40674-2.25781-8.39062a7.241,7.241,0,0,0-6.08984-2.98242,6.95227,6.95227,0,0,0-5.68652,2.78906,10.92165,10.92165,0,0,0-2.2207,7.02539,10.62359,10.62359,0,0,0,2.13574,6.78125A6.73617,6.73617,0,0,0,135.49414,178.05651Z"/><polygon class="cls-2" points="23.509 56.485 12.281 68.431 23.509 80.375 34.736 68.431 23.509 56.485"/><polygon class="cls-2" points="136.307 202.808 125.08 214.753 136.307 226.698 147.535 214.753 136.307 202.808"/></svg>