<svg id="Layer_1" data-name="Layer 1" xmlns="http://www.w3.org/2000/svg" xmlns:xlink="http://www.w3.org/1999/xlink" viewBox="0 0 160 240"><defs><style>.cls-1{fill:url(#linear-gradient);}.cls-2{fill:#fff;}</style><linearGradient id="linear-gradient" x1="-18.38909" y1="21.61091" x2="178.38909" y2="218.38909" gradientUnits="userSpaceOnUse"><stop offset="0.00513" stop-color="#ed3973"/><stop offset="1" stop-color="#f58a4a"/></linearGradient></defs><title>Cards</title><rect class="cls-1" width="160" height="240" rx="5.5" ry="5.5"/><path class="cls-2" d="M31.23828,29.46428A10.9932,10.9932,0,0,1,27.35742,33.017a10.38353,10.38353,0,0,1-5.02734,1.25684,9.33591,9.33591,0,0,1-5.3457-1.5625,10.21616,10.21616,0,0,1-3.58789-4.32129A14.242,14.242,0,0,1,12.127,22.35979a14.85729,14.85729,0,0,1,1.35449-6.39648,10.64042,10.64042,0,0,1,3.7832-4.47949,9.95062,9.95062,0,0,1,5.60156-1.59961,10.03081,10.03081,0,0,1,8.32324,3.748q2.978,3.74707,2.97754,10.63184v2.63672q0,9.61963-4.09961,14.45313-4.10156,4.834-12.52148,4.834h-.53711l.02441-2.53906h1.02539q6.37061-.09668,9.68945-3.61328Q31.06738,36.51995,31.23828,29.46428Zm-8.542,2.27051a8.56793,8.56793,0,0,0,5.25977-1.74121A9.3994,9.3994,0,0,0,31.26269,25.476V23.79631q0-5.40674-2.25781-8.38965a7.24185,7.24185,0,0,0-6.08984-2.9834,6.95227,6.95227,0,0,0-5.68652,2.78906,10.92165,10.92165,0,0,0-2.2207,7.02539,10.6283,10.6283,0,0,0,2.13574,6.78223A6.73527,6.73527,0,0,0,22.69629,31.73479Z"/><path class="cls-2" d="M144.03613,175.78655a10.99939,10.99939,0,0,1-3.88086,3.55176,10.37267,10.37267,0,0,1-5.02734,1.25684,9.32855,9.32855,0,0,1-5.3457-1.5625,10.2192,10.2192,0,0,1-3.58789-4.32031,14.24964,14.24964,0,0,1-1.26953-6.03125,14.86039,14.86039,0,0,1,1.35449-6.39648,10.64042,10.64042,0,0,1,3.7832-4.47949,10.92225,10.92225,0,0,1,13.9248,2.14844q2.978,3.74854,2.97754,10.63184v2.63672q0,9.62109-4.09961,14.45313-4.10156,4.834-12.52148,4.834h-.53711l.02441-2.53906h1.02539q6.37061-.09668,9.68945-3.61328Q143.86523,182.84124,144.03613,175.78655Zm-8.542,2.26953a8.57315,8.57315,0,0,0,5.25977-1.74023,9.40852,9.40852,0,0,0,3.30664-4.51758V170.1176q0-5.40674-2.25781-8.38965a7.241,7.241,0,0,0-6.08984-2.98242,6.954,6.954,0,0,0-5.68652,2.78809,10.92165,10.92165,0,0,0-2.2207,7.02539,10.62641,10.62641,0,0,0,2.13574,6.78223A6.73527,6.73527,0,0,0,135.49414,178.05608Z"/><path class="cls-2" d="M29.8081,57.23181a6.89952,6.89952,0,0,0-6.29924,4.1995,6.90253,6.90253,0,0,0-6.29924-4.1995,6.17722,6.17722,0,0,0-6.29924,6.29924c0,4.94043,5.30956,8.75987,12.59848,16.09807,7.28892-7.3382,12.59848-11.15764,12.59848-16.09807A6.17722,6.17722,0,0,0,29.8081,57.23181Z"/><path class="cls-2" d="M142.60671,203.554a6.89952,6.89952,0,0,0-6.29924,4.1995,6.90253,6.90253,0,0,0-6.29924-4.1995,6.17722,6.17722,0,0,0-6.29924,6.29924c0,4.94043,5.30956,8.75987,12.59848,16.09807,7.28892-7.3382,12.59849-11.15764,12.59849-16.09807A6.17722,6.17722,0,0,0,142.60671,203.554Z"/></svg>