<svg id="Layer_1" data-name="Layer 1" xmlns="http://www.w3.org/2000/svg" xmlns:xlink="http://www.w3.org/1999/xlink" viewBox="0 0 160 240"><defs><style>.cls-1{fill:url(#linear-gradient);}.cls-2{fill:#fff;}</style><linearGradient id="linear-gradient" x1="-18.38909" y1="21.61091" x2="178.38909" y2="218.38909" gradientUnits="userSpaceOnUse"><stop offset="0.00513" stop-color="#0082dc"/><stop offset="1" stop-color="#8cc8ff"/></linearGradient></defs><title>Cards</title><rect class="cls-1" width="160" height="240" rx="5.5" ry="5.5"/><path class="cls-2" d="M31.23828,29.46453a10.99938,10.99938,0,0,1-3.88086,3.55176,10.37267,10.37267,0,0,1-5.02734,1.25684,9.32855,9.32855,0,0,1-5.3457-1.5625,10.2192,10.2192,0,0,1-3.58789-4.32031A14.24964,14.24964,0,0,1,12.127,22.35906a14.8604,14.8604,0,0,1,1.35449-6.39648,10.64042,10.64042,0,0,1,3.7832-4.47949,9.95764,9.95764,0,0,1,5.60156-1.59863,10.03009,10.03009,0,0,1,8.32324,3.74707q2.978,3.74854,2.97754,10.63184v2.63672q0,9.62109-4.09961,14.45313-4.10156,4.834-12.52148,4.834h-.53711l.02441-2.53906h1.02539q6.37061-.09668,9.68945-3.61328Q31.06738,36.51922,31.23828,29.46453Zm-8.542,2.26953a8.57315,8.57315,0,0,0,5.25977-1.74023,9.40852,9.40852,0,0,0,3.30664-4.51758V23.79559q0-5.40674-2.25781-8.38965A7.241,7.241,0,0,0,22.915,12.42352a6.954,6.954,0,0,0-5.68652,2.78809,10.92165,10.92165,0,0,0-2.2207,7.02539,10.62641,10.62641,0,0,0,2.13574,6.78223A6.73527,6.73527,0,0,0,22.69629,31.73406Z"/><path class="cls-2" d="M144.03613,175.78582a10.99032,10.99032,0,0,1-3.88086,3.55176,10.37351,10.37351,0,0,1-5.02734,1.25781,9.33591,9.33591,0,0,1-5.3457-1.5625,10.228,10.228,0,0,1-3.58789-4.32129,14.2452,14.2452,0,0,1-1.26953-6.03027,14.85729,14.85729,0,0,1,1.35449-6.39648,10.63735,10.63735,0,0,1,3.7832-4.48047,10.92225,10.92225,0,0,1,13.9248,2.14844q2.978,3.74854,2.97754,10.63281v2.63672q0,9.61963-4.09961,14.45313-4.10156,4.834-12.52148,4.834h-.53711l.02441-2.53906h1.02539q6.37061-.09814,9.68945-3.61328Q143.86523,182.84148,144.03613,175.78582Zm-8.542,2.27051a8.56793,8.56793,0,0,0,5.25977-1.74121,9.40852,9.40852,0,0,0,3.30664-4.51758v-1.68066q0-5.40527-2.25781-8.38965a7.241,7.241,0,0,0-6.08984-2.98242,6.954,6.954,0,0,0-5.68652,2.78809,10.92539,10.92539,0,0,0-2.2207,7.02539,10.62452,10.62452,0,0,0,2.13574,6.78223A6.73617,6.73617,0,0,0,135.49414,178.05633Z"/><path class="cls-2" d="M17.97966,75.77685a6.05611,6.05611,0,0,0,5.5292-3.68615A6.05871,6.05871,0,0,0,29.038,75.77683a5.42211,5.42211,0,0,0,5.5292-5.52922c0-4.3365-4.66048-7.689-11.05836-14.13019-6.3979,6.44117-11.0584,9.79373-11.0584,14.13023A5.42207,5.42207,0,0,0,17.97966,75.77685Z"/><path class="cls-2" d="M22.52919,69.99163V78.4725l-4.33648,0v2.27093l4.3365.00005,1.95911,0,4.3365.00005V78.47258l-4.33652-.00006h0V69.99165"/><path class="cls-2" d="M130.77826,222.09909a6.05611,6.05611,0,0,0,5.5292-3.68615,6.05871,6.05871,0,0,0,5.52919,3.68613,5.42211,5.42211,0,0,0,5.5292-5.52922c0-4.3365-4.66048-7.689-11.05836-14.13019-6.3979,6.44117-11.0584,9.79373-11.0584,14.13023A5.42207,5.42207,0,0,0,130.77826,222.09909Z"/><path class="cls-2" d="M135.32779,216.31386v8.48087l-4.33648,0v2.27093l4.3365.00005,1.95911,0,4.3365.00005v-2.27093l-4.33652-.00006h0v-8.48087"/></svg>