<svg id="Layer_1" data-name="Layer 1" xmlns="http://www.w3.org/2000/svg" xmlns:xlink="http://www.w3.org/1999/xlink" viewBox="0 0 160 240"><defs><style>.cls-1{fill:url(#linear-gradient);}.cls-2{fill:#fff;}</style><linearGradient id="linear-gradient" x1="-18.38909" y1="21.61091" x2="178.38909" y2="218.38909" gradientUnits="userSpaceOnUse"><stop offset="0.00513" stop-color="#7f4c9d"/><stop offset="1" stop-color="#c472ad"/></linearGradient></defs><title>Cards</title><rect class="cls-1" width="160" height="240" rx="5.5" ry="5.5"/><path class="cls-2" d="M31.57681,35.93344H15.443l-3.66113,9.98535H8.63345L22.0817,10.37191h2.85547L38.38638,45.91879h-3.124ZM16.37076,33.39437H30.62467L23.49771,14.034Z"/><path class="cls-2" d="M144.37564,182.2557H128.24185l-3.66113,9.98438h-3.14844l13.44824-35.54687H137.736l13.44922,35.54688h-3.124Zm-15.20605-2.53906h14.25391l-7.127-19.36133Z"/><polygon class="cls-2" points="23.509 56.485 12.281 68.431 23.509 80.375 34.736 68.431 23.509 56.485"/><polygon class="cls-2" points="136.307 202.808 125.08 214.753 136.307 226.698 147.535 214.753 136.307 202.808"/></svg>