<svg id="Layer_1" data-name="Layer 1" xmlns="http://www.w3.org/2000/svg" xmlns:xlink="http://www.w3.org/1999/xlink" viewBox="0 0 160 240"><defs><style>.cls-1{fill:url(#linear-gradient);}.cls-2{fill:#fff;}</style><linearGradient id="linear-gradient" x1="-18.38909" y1="21.61091" x2="178.38909" y2="218.38909" gradientUnits="userSpaceOnUse"><stop offset="0.00513" stop-color="#ed3973"/><stop offset="1" stop-color="#f58a4a"/></linearGradient></defs><title>Cards</title><rect class="cls-1" width="160" height="240" rx="5.5" ry="5.5"/><path class="cls-2" d="M31.57681,35.93333H15.443l-3.66113,9.98535H8.63345L22.0817,10.37181h2.85547L38.38638,45.91868h-3.124ZM16.37076,33.39427H30.62467l-7.127-19.36035Z"/><path class="cls-2" d="M144.37564,182.2556H128.24185L124.58072,192.24h-3.14844l13.44824-35.54687H137.736L151.18521,192.24h-3.124Zm-15.20605-2.53906h14.25391l-7.127-19.36133Z"/><path class="cls-2" d="M29.8081,57.23181a6.89952,6.89952,0,0,0-6.29924,4.1995,6.90253,6.90253,0,0,0-6.29924-4.1995,6.17722,6.17722,0,0,0-6.29924,6.29924c0,4.94043,5.30956,8.75987,12.59848,16.09807,7.28892-7.3382,12.59848-11.15764,12.59848-16.09807A6.17722,6.17722,0,0,0,29.8081,57.23181Z"/><path class="cls-2" d="M142.60671,203.554a6.89952,6.89952,0,0,0-6.29924,4.1995,6.90253,6.90253,0,0,0-6.29924-4.1995,6.17722,6.17722,0,0,0-6.29924,6.29924c0,4.94043,5.30956,8.75987,12.59848,16.09807,7.28892-7.3382,12.59849-11.15764,12.59849-16.09807A6.17722,6.17722,0,0,0,142.60671,203.554Z"/></svg>