<svg id="Layer_1" data-name="Layer 1" xmlns="http://www.w3.org/2000/svg" xmlns:xlink="http://www.w3.org/1999/xlink" viewBox="0 0 160 240"><defs><style>.cls-1{fill:url(#linear-gradient);}.cls-2{fill:#fff;}</style><linearGradient id="linear-gradient" x1="-18.38909" y1="21.61091" x2="178.38909" y2="218.38909" gradientUnits="userSpaceOnUse"><stop offset="0.00513" stop-color="#0082dc"/><stop offset="1" stop-color="#8cc8ff"/></linearGradient></defs><title>Cards</title><rect class="cls-1" width="160" height="240" rx="5.5" ry="5.5"/><path class="cls-2" d="M31.57779,35.93328H15.444l-3.66113,9.98633H8.63443L22.08267,10.37273h2.85547L38.38736,45.91961h-3.124ZM16.37174,33.39422H30.62564l-7.127-19.35937Z"/><path class="cls-2" d="M144.37662,182.25555H128.24283l-3.66113,9.98535h-3.14844L134.8815,156.694H137.737l13.44922,35.54688h-3.124Zm-15.20605-2.53906h14.25391l-7.127-19.36035Z"/><path class="cls-2" d="M17.97966,75.77685a6.05611,6.05611,0,0,0,5.5292-3.68615A6.05871,6.05871,0,0,0,29.038,75.77683a5.42211,5.42211,0,0,0,5.5292-5.52922c0-4.3365-4.66048-7.689-11.05836-14.13019-6.3979,6.44117-11.0584,9.79373-11.0584,14.13023A5.42207,5.42207,0,0,0,17.97966,75.77685Z"/><path class="cls-2" d="M22.52919,69.99163V78.4725l-4.33648,0v2.27093l4.3365.00005,1.95911,0,4.3365.00005V78.47258l-4.33652-.00006h0V69.99165"/><path class="cls-2" d="M130.77826,222.09909a6.05611,6.05611,0,0,0,5.5292-3.68615,6.05871,6.05871,0,0,0,5.52919,3.68613,5.42211,5.42211,0,0,0,5.5292-5.52922c0-4.3365-4.66048-7.689-11.05836-14.13019-6.3979,6.44117-11.0584,9.79373-11.0584,14.13023A5.42207,5.42207,0,0,0,130.77826,222.09909Z"/><path class="cls-2" d="M135.32779,216.31386v8.48087l-4.33648,0v2.27093l4.3365.00005,1.95911,0,4.3365.00005v-2.27093l-4.33652-.00006h0v-8.48087"/></svg>