<svg id="Layer_1" data-name="Layer 1" xmlns="http://www.w3.org/2000/svg" xmlns:xlink="http://www.w3.org/1999/xlink" viewBox="0 0 160 240"><defs><style>.cls-1{fill:url(#linear-gradient);}.cls-2{fill:#fff;}</style><linearGradient id="linear-gradient" x1="-18.38909" y1="21.61091" x2="178.38909" y2="218.38909" gradientUnits="userSpaceOnUse"><stop offset="0.00513" stop-color="#027996"/><stop offset="1" stop-color="#7fc473"/></linearGradient></defs><title>Cards</title><rect class="cls-1" width="160" height="240" rx="5.5" ry="5.5"/><path class="cls-2" d="M29.9474,10.37271h3.02539V35.3483a11.0741,11.0741,0,0,1-2.916,8.05664,10.4053,10.4053,0,0,1-7.82227,3.00293q-5.17676,0-7.957-2.71a10.07535,10.07535,0,0,1-2.7832-7.56836h3.002q0,3.85693,2.02539,5.79785a7.9294,7.9294,0,0,0,5.71289,1.94141,7.28759,7.28759,0,0,0,5.52734-2.24609A8.665,8.665,0,0,0,29.9474,35.5192Z"/><path class="cls-2" d="M142.74428,156.694h3.02734v24.97461a11.0671,11.0671,0,0,1-2.918,8.05664,10.4,10.4,0,0,1-7.82227,3.00391q-5.17383,0-7.957-2.71094a10.07284,10.07284,0,0,1-2.78125-7.56836h3.002q0,3.8584,2.02539,5.79883a7.92125,7.92125,0,0,0,5.71094,1.94141,7.29191,7.29191,0,0,0,5.5293-2.24609,8.66572,8.66572,0,0,0,2.18359-6.10352Z"/><path class="cls-2" d="M31.28938,64.77255a5.245,5.245,0,0,0-5.09791,4.03958l-1.68968,0V66.16832a5.259,5.259,0,1,0-1.95911.00268v2.64109l-1.71651,0a5.27615,5.27615,0,1,0,.07946,1.95906l1.63706,0v8.05567l-4.33648,0v2.27093l4.3365.00005,1.95911,0,4.3365.00005V78.82691l-4.33652-.00006h0V70.77117l1.61023,0a5.24242,5.24242,0,1,0,5.17736-5.99864Z"/><path class="cls-2" d="M144.088,211.09479a5.245,5.245,0,0,0-5.09791,4.03958l-1.68968,0v-2.64379a5.259,5.259,0,1,0-1.95911.00268v2.64109l-1.71651,0a5.27615,5.27615,0,1,0,.07946,1.95906l1.63706,0v8.05567l-4.33648,0V227.42l4.3365.00005,1.95911,0,4.3365.00005v-2.27093l-4.33652-.00006h0v-8.05567l1.61023,0a5.24242,5.24242,0,1,0,5.17736-5.99864Z"/></svg>