<svg id="Layer_1" data-name="Layer 1" xmlns="http://www.w3.org/2000/svg" xmlns:xlink="http://www.w3.org/1999/xlink" viewBox="0 0 160 240"><defs><style>.cls-1{fill:url(#linear-gradient);}.cls-2{fill:#fff;}</style><linearGradient id="linear-gradient" x1="-18.38909" y1="21.61091" x2="178.38909" y2="218.38909" gradientUnits="userSpaceOnUse"><stop offset="0.00513" stop-color="#7f4c9d"/><stop offset="1" stop-color="#c472ad"/></linearGradient></defs><title>Cards</title><rect class="cls-1" width="160" height="240" rx="5.5" ry="5.5"/><path class="cls-2" d="M29.9474,10.37194h3.02539V35.3485a11.0741,11.0741,0,0,1-2.916,8.05664,10.40468,10.40468,0,0,1-7.82227,3.002q-5.17676,0-7.957-2.709a10.07684,10.07684,0,0,1-2.7832-7.56836h3.002q0,3.85693,2.02539,5.79785A7.929,7.929,0,0,0,22.23451,43.868a7.28407,7.28407,0,0,0,5.52734-2.24609,8.66168,8.66168,0,0,0,2.18555-6.10352Z"/><path class="cls-2" d="M142.74428,156.69323h3.02734v24.97559a11.0671,11.0671,0,0,1-2.918,8.05664,10.39934,10.39934,0,0,1-7.82227,3.00293q-5.17383,0-7.957-2.71a10.07433,10.07433,0,0,1-2.78125-7.56836h3.002q0,3.8584,2.02539,5.79883a7.92087,7.92087,0,0,0,5.71094,1.94043,7.28839,7.28839,0,0,0,5.5293-2.24609,8.66235,8.66235,0,0,0,2.18359-6.10352Z"/><polygon class="cls-2" points="23.509 56.485 12.281 68.431 23.509 80.375 34.736 68.431 23.509 56.485"/><polygon class="cls-2" points="136.307 202.808 125.08 214.753 136.307 226.698 147.535 214.753 136.307 202.808"/></svg>