<svg id="Layer_1" data-name="Layer 1" xmlns="http://www.w3.org/2000/svg" xmlns:xlink="http://www.w3.org/1999/xlink" viewBox="0 0 160 240"><defs><style>.cls-1{fill:url(#linear-gradient);}.cls-2{fill:#fff;}</style><linearGradient id="linear-gradient" x1="-18.38909" y1="21.61091" x2="178.38909" y2="218.38909" gradientUnits="userSpaceOnUse"><stop offset="0.00513" stop-color="#ed3973"/><stop offset="1" stop-color="#f58a4a"/></linearGradient></defs><title>Cards</title><rect class="cls-1" width="160" height="240" rx="5.5" ry="5.5"/><path class="cls-2" d="M29.9474,10.37279h3.02539V35.34837a11.0741,11.0741,0,0,1-2.916,8.05664,10.4053,10.4053,0,0,1-7.82227,3.00293q-5.17676,0-7.957-2.71a10.07535,10.07535,0,0,1-2.7832-7.56836h3.002q0,3.85693,2.02539,5.79785a7.9294,7.9294,0,0,0,5.71289,1.94141,7.28759,7.28759,0,0,0,5.52734-2.24609,8.665,8.665,0,0,0,2.18555-6.10352Z"/><path class="cls-2" d="M142.74428,156.6931h3.02734v24.97656a11.0671,11.0671,0,0,1-2.918,8.05664,10.39872,10.39872,0,0,1-7.82227,3.002q-5.17383,0-7.957-2.709a10.07582,10.07582,0,0,1-2.78125-7.56836h3.002q0,3.85693,2.02539,5.79785a7.92087,7.92087,0,0,0,5.71094,1.94043,7.28839,7.28839,0,0,0,5.5293-2.24609,8.66066,8.66066,0,0,0,2.18359-6.10352Z"/><path class="cls-2" d="M29.8081,57.23181a6.89952,6.89952,0,0,0-6.29924,4.1995,6.90253,6.90253,0,0,0-6.29924-4.1995,6.17722,6.17722,0,0,0-6.29924,6.29924c0,4.94043,5.30956,8.75987,12.59848,16.09807,7.28892-7.3382,12.59848-11.15764,12.59848-16.09807A6.17722,6.17722,0,0,0,29.8081,57.23181Z"/><path class="cls-2" d="M142.60671,203.554a6.89952,6.89952,0,0,0-6.29924,4.1995,6.90253,6.90253,0,0,0-6.29924-4.1995,6.17722,6.17722,0,0,0-6.29924,6.29924c0,4.94043,5.30956,8.75987,12.59848,16.09807,7.28892-7.3382,12.59849-11.15764,12.59849-16.09807A6.17722,6.17722,0,0,0,142.60671,203.554Z"/></svg>