<svg id="Layer_1" data-name="Layer 1" xmlns="http://www.w3.org/2000/svg" xmlns:xlink="http://www.w3.org/1999/xlink" viewBox="0 0 160 240"><defs><style>.cls-1{fill:url(#linear-gradient);}.cls-2{fill:#fff;}</style><linearGradient id="linear-gradient" x1="-18.38909" y1="21.61091" x2="178.38909" y2="218.38909" gradientUnits="userSpaceOnUse"><stop offset="0.00513" stop-color="#0082dc"/><stop offset="1" stop-color="#8cc8ff"/></linearGradient></defs><title>Cards</title><rect class="cls-1" width="160" height="240" rx="5.5" ry="5.5"/><path class="cls-2" d="M29.9474,10.37273h3.02539V35.34832a11.0741,11.0741,0,0,1-2.916,8.05664,10.4053,10.4053,0,0,1-7.82227,3.00293q-5.17676,0-7.957-2.71a10.07535,10.07535,0,0,1-2.7832-7.56836h3.002q0,3.85693,2.02539,5.79785a7.9294,7.9294,0,0,0,5.71289,1.94141,7.28759,7.28759,0,0,0,5.52734-2.24609,8.665,8.665,0,0,0,2.18555-6.10352Z"/><path class="cls-2" d="M142.74428,156.693h3.02734v24.97559a11.0671,11.0671,0,0,1-2.918,8.05664,10.39934,10.39934,0,0,1-7.82227,3.00293q-5.17383,0-7.957-2.71a10.07433,10.07433,0,0,1-2.78125-7.56836h3.002q0,3.8584,2.02539,5.79883a7.92087,7.92087,0,0,0,5.71094,1.94043,7.28839,7.28839,0,0,0,5.5293-2.24609,8.66235,8.66235,0,0,0,2.18359-6.10352Z"/><path class="cls-2" d="M17.97966,75.77685a6.05611,6.05611,0,0,0,5.5292-3.68615A6.05871,6.05871,0,0,0,29.038,75.77683a5.42211,5.42211,0,0,0,5.5292-5.52922c0-4.3365-4.66048-7.689-11.05836-14.13019-6.3979,6.44117-11.0584,9.79373-11.0584,14.13023A5.42207,5.42207,0,0,0,17.97966,75.77685Z"/><path class="cls-2" d="M22.52919,69.99163V78.4725l-4.33648,0v2.27093l4.3365.00005,1.95911,0,4.3365.00005V78.47258l-4.33652-.00006h0V69.99165"/><path class="cls-2" d="M130.77826,222.09909a6.05611,6.05611,0,0,0,5.5292-3.68615,6.05871,6.05871,0,0,0,5.52919,3.68613,5.42211,5.42211,0,0,0,5.5292-5.52922c0-4.3365-4.66048-7.689-11.05836-14.13019-6.3979,6.44117-11.0584,9.79373-11.0584,14.13023A5.42207,5.42207,0,0,0,130.77826,222.09909Z"/><path class="cls-2" d="M135.32779,216.31386v8.48087l-4.33648,0v2.27093l4.3365.00005,1.95911,0,4.3365.00005v-2.27093l-4.33652-.00006h0v-8.48087"/></svg>