<svg id="Layer_1" data-name="Layer 1" xmlns="http://www.w3.org/2000/svg" xmlns:xlink="http://www.w3.org/1999/xlink" viewBox="0 0 160 240"><defs><style>.cls-1{fill:url(#linear-gradient);}.cls-2{fill:#fff;}</style><linearGradient id="linear-gradient" x1="-18.38909" y1="21.61091" x2="178.38909" y2="218.38909" gradientUnits="userSpaceOnUse"><stop offset="0.00513" stop-color="#7f4c9d"/><stop offset="1" stop-color="#c472ad"/></linearGradient></defs><title>Cards</title><rect class="cls-1" width="160" height="240" rx="5.5" ry="5.5"/><path class="cls-2" d="M20.24528,28.26842l-5.00391,4.93164V45.91881h-3.002V10.37194h3.002V29.538l18.208-19.166h3.7832L22.34391,26.19225,38.38,45.91881H34.71891Z"/><path class="cls-2" d="M133.04313,174.58971l-5.00391,4.93164v12.71973h-3.002V156.6942h3.002v19.165l18.208-19.165h3.7832l-14.88867,15.82031,16.03613,19.72656h-3.66113Z"/><polygon class="cls-2" points="23.509 56.485 12.281 68.431 23.509 80.375 34.736 68.431 23.509 56.485"/><polygon class="cls-2" points="136.307 202.808 125.08 214.753 136.307 226.698 147.535 214.753 136.307 202.808"/></svg>