<svg id="Layer_1" data-name="Layer 1" xmlns="http://www.w3.org/2000/svg" xmlns:xlink="http://www.w3.org/1999/xlink" viewBox="0 0 160 240"><defs><style>.cls-1{fill:url(#linear-gradient);}.cls-2{fill:#fff;}</style><linearGradient id="linear-gradient" x1="-18.38909" y1="21.61091" x2="178.38909" y2="218.38909" gradientUnits="userSpaceOnUse"><stop offset="0.00513" stop-color="#027996"/><stop offset="1" stop-color="#7fc473"/></linearGradient></defs><title>Cards</title><rect class="cls-1" width="160" height="240" rx="5.5" ry="5.5"/><path class="cls-2" d="M37.25776,30.07389a20.41837,20.41837,0,0,1-1.79395,8.85059,12.68365,12.68365,0,0,1-5.11328,5.7002l6.46777,5.63965-2.07422,1.85547-7.25-6.27441a15.02572,15.02572,0,0,1-4.0752.56152,12.91175,12.91175,0,0,1-12.10645-7.67773,19.90987,19.90987,0,0,1-1.75781-8.48437V26.26529a20.4257,20.4257,0,0,1,1.7207-8.60547A12.78428,12.78428,0,0,1,23.37007,9.88346a13.31479,13.31479,0,0,1,7.29785,2.002,13.08382,13.08382,0,0,1,4.86914,5.7373,20.4067,20.4067,0,0,1,1.7207,8.61816Zm-3.002-3.85742q0-6.42041-2.90527-10.05859a9.65594,9.65594,0,0,0-7.98047-3.6377A9.59155,9.59155,0,0,0,15.498,16.17057Q12.55659,19.821,12.55659,26.36295v3.71094q0,6.32373,2.917,10.02246a9.57458,9.57458,0,0,0,7.94531,3.69824,9.58453,9.58453,0,0,0,7.95605-3.6377q2.87988-3.63721,2.88086-10.15625Z"/><path class="cls-2" d="M150.05561,176.39518a20.41837,20.41837,0,0,1-1.79395,8.85059,12.68365,12.68365,0,0,1-5.11328,5.7002l6.46777,5.63965-2.07422,1.85547-7.25-6.27441a15.02572,15.02572,0,0,1-4.0752.56152,12.91175,12.91175,0,0,1-12.10645-7.67773,19.90987,19.90987,0,0,1-1.75781-8.48437v-3.97949a20.4257,20.4257,0,0,1,1.7207-8.60547,12.78428,12.78428,0,0,1,12.09473-7.77637,13.31479,13.31479,0,0,1,7.29785,2.002,13.08382,13.08382,0,0,1,4.86914,5.7373,20.4067,20.4067,0,0,1,1.7207,8.61816Zm-3.002-3.85742q0-6.42041-2.90527-10.05859a10.442,10.442,0,0,0-15.85254.0127q-2.94141,3.65039-2.94141,10.19238v3.71094q0,6.32373,2.917,10.02246a10.45106,10.45106,0,0,0,15.90137.06055q2.87988-3.63721,2.88086-10.15625Z"/><path class="cls-2" d="M31.28938,64.77255a5.245,5.245,0,0,0-5.09791,4.03958l-1.68968,0V66.16832a5.259,5.259,0,1,0-1.95911.00268v2.64109l-1.71651,0a5.27615,5.27615,0,1,0,.07946,1.95906l1.63706,0v8.05567l-4.33648,0v2.27093l4.3365.00005,1.95911,0,4.3365.00005V78.82691l-4.33652-.00006h0V70.77117l1.61023,0a5.24242,5.24242,0,1,0,5.17736-5.99864Z"/><path class="cls-2" d="M144.088,211.09479a5.245,5.245,0,0,0-5.09791,4.03958l-1.68968,0v-2.64379a5.259,5.259,0,1,0-1.95911.00268v2.64109l-1.71651,0a5.27615,5.27615,0,1,0,.07946,1.95906l1.63706,0v8.05567l-4.33648,0V227.42l4.3365.00005,1.95911,0,4.3365.00005v-2.27093l-4.33652-.00006h0v-8.05567l1.61023,0a5.24242,5.24242,0,1,0,5.17736-5.99864Z"/></svg>