<svg id="Layer_1" data-name="Layer 1" xmlns="http://www.w3.org/2000/svg" xmlns:xlink="http://www.w3.org/1999/xlink" viewBox="0 0 160 240"><defs><style>.cls-1{fill:url(#linear-gradient);}.cls-2{fill:#fff;}</style><linearGradient id="linear-gradient" x1="-18.38909" y1="21.61091" x2="178.38909" y2="218.38909" gradientUnits="userSpaceOnUse"><stop offset="0.00513" stop-color="#7f4c9d"/><stop offset="1" stop-color="#c472ad"/></linearGradient></defs><title>Cards</title><rect class="cls-1" width="160" height="240" rx="5.5" ry="5.5"/><path class="cls-2" d="M37.25776,30.07446a20.41389,20.41389,0,0,1-1.79395,8.84961,12.69119,12.69119,0,0,1-5.11328,5.70117l6.46777,5.63965-2.07422,1.85547-7.25-6.27441a15.02572,15.02572,0,0,1-4.0752.56152,12.91058,12.91058,0,0,1-12.10645-7.67871,19.90851,19.90851,0,0,1-1.75781-8.4834V26.26587a20.43028,20.43028,0,0,1,1.7207-8.60645A12.78146,12.78146,0,0,1,23.37007,9.884a13.3066,13.3066,0,0,1,7.29785,2.002,13.08382,13.08382,0,0,1,4.86914,5.7373,20.4067,20.4067,0,0,1,1.7207,8.61816Zm-3.002-3.85742q0-6.42041-2.90527-10.05859a9.65594,9.65594,0,0,0-7.98047-3.6377A9.59347,9.59347,0,0,0,15.498,16.17017q-2.94141,3.65039-2.94141,10.19336v3.71094q0,6.32373,2.917,10.02148a9.57537,9.57537,0,0,0,7.94531,3.69922,9.58721,9.58721,0,0,0,7.95605-3.6377q2.87988-3.63721,2.88086-10.15625Z"/><path class="cls-2" d="M150.05561,176.39575a20.41389,20.41389,0,0,1-1.79395,8.84961,12.69119,12.69119,0,0,1-5.11328,5.70117l6.46777,5.63965-2.07422,1.85547-7.25-6.27441a15.02572,15.02572,0,0,1-4.0752.56152A12.91058,12.91058,0,0,1,124.1103,185.05a19.90852,19.90852,0,0,1-1.75781-8.4834v-3.97949a20.43028,20.43028,0,0,1,1.7207-8.60645,12.78146,12.78146,0,0,1,12.09473-7.77539,13.3066,13.3066,0,0,1,7.29785,2.002,13.08382,13.08382,0,0,1,4.86914,5.7373,20.4067,20.4067,0,0,1,1.7207,8.61816Zm-3.002-3.85742q0-6.42041-2.90527-10.05859a10.443,10.443,0,0,0-15.85254.01172q-2.94141,3.65039-2.94141,10.19336v3.71094q0,6.32373,2.917,10.02148a10.45016,10.45016,0,0,0,15.90137.06152q2.87988-3.63721,2.88086-10.15625Z"/><polygon class="cls-2" points="23.509 56.485 12.281 68.431 23.509 80.375 34.736 68.431 23.509 56.485"/><polygon class="cls-2" points="136.307 202.808 125.08 214.753 136.307 226.698 147.535 214.753 136.307 202.808"/></svg>