<svg id="Layer_1" data-name="Layer 1" xmlns="http://www.w3.org/2000/svg" xmlns:xlink="http://www.w3.org/1999/xlink" viewBox="0 0 160 240"><defs><style>.cls-1{fill:url(#linear-gradient);}.cls-2{fill:#fff;}</style><linearGradient id="linear-gradient" x1="-18.38909" y1="21.61091" x2="178.38909" y2="218.38909" gradientUnits="userSpaceOnUse"><stop offset="0.00513" stop-color="#ed3973"/><stop offset="1" stop-color="#f58a4a"/></linearGradient></defs><title>Cards</title><rect class="cls-1" width="160" height="240" rx="5.5" ry="5.5"/><path class="cls-2" d="M37.25776,30.074a20.41837,20.41837,0,0,1-1.79395,8.85059,12.68365,12.68365,0,0,1-5.11328,5.7002l6.46777,5.63965-2.07422,1.85547-7.25-6.27441a15.02572,15.02572,0,0,1-4.0752.56152,12.91175,12.91175,0,0,1-12.10645-7.67773,19.90987,19.90987,0,0,1-1.75781-8.48437V26.26536a20.4257,20.4257,0,0,1,1.7207-8.60547A12.78428,12.78428,0,0,1,23.37007,9.88353a13.31479,13.31479,0,0,1,7.29785,2.002,13.08382,13.08382,0,0,1,4.86914,5.7373,20.4067,20.4067,0,0,1,1.7207,8.61816Zm-3.002-3.85742q0-6.42041-2.90527-10.05859a9.65594,9.65594,0,0,0-7.98047-3.6377A9.59155,9.59155,0,0,0,15.498,16.17064Q12.55659,19.821,12.55659,26.363V30.074q0,6.32373,2.917,10.02246a9.57458,9.57458,0,0,0,7.94531,3.69824,9.58453,9.58453,0,0,0,7.95605-3.6377q2.87988-3.63721,2.88086-10.15625Z"/><path class="cls-2" d="M150.05561,176.39525a20.41837,20.41837,0,0,1-1.79395,8.85059,12.68365,12.68365,0,0,1-5.11328,5.7002l6.46777,5.63965-2.07422,1.85547-7.25-6.27441a15.02572,15.02572,0,0,1-4.0752.56152,12.91175,12.91175,0,0,1-12.10645-7.67773,19.90987,19.90987,0,0,1-1.75781-8.48437v-3.97949a20.4257,20.4257,0,0,1,1.7207-8.60547,12.78428,12.78428,0,0,1,12.09473-7.77637,13.31479,13.31479,0,0,1,7.29785,2.002,13.08382,13.08382,0,0,1,4.86914,5.7373,20.4067,20.4067,0,0,1,1.7207,8.61816Zm-3.002-3.85742q0-6.42041-2.90527-10.05859a10.442,10.442,0,0,0-15.85254.0127q-2.94141,3.65039-2.94141,10.19238v3.71094q0,6.32373,2.917,10.02246a10.45106,10.45106,0,0,0,15.90137.06055q2.87988-3.63721,2.88086-10.15625Z"/><path class="cls-2" d="M29.8081,57.23181a6.89952,6.89952,0,0,0-6.29924,4.1995,6.90253,6.90253,0,0,0-6.29924-4.1995,6.17722,6.17722,0,0,0-6.29924,6.29924c0,4.94043,5.30956,8.75987,12.59848,16.09807,7.28892-7.3382,12.59848-11.15764,12.59848-16.09807A6.17722,6.17722,0,0,0,29.8081,57.23181Z"/><path class="cls-2" d="M142.60671,203.554a6.89952,6.89952,0,0,0-6.29924,4.1995,6.90253,6.90253,0,0,0-6.29924-4.1995,6.17722,6.17722,0,0,0-6.29924,6.29924c0,4.94043,5.30956,8.75987,12.59848,16.09807,7.28892-7.3382,12.59849-11.15764,12.59849-16.09807A6.17722,6.17722,0,0,0,142.60671,203.554Z"/></svg>