<svg id="Layer_1" data-name="Layer 1" xmlns="http://www.w3.org/2000/svg" xmlns:xlink="http://www.w3.org/1999/xlink" viewBox="0 0 160 240"><defs><style>.cls-1{fill:url(#linear-gradient);}.cls-2{fill:#fff;}</style><linearGradient id="linear-gradient" x1="-18.38909" y1="21.61091" x2="178.38909" y2="218.38909" gradientUnits="userSpaceOnUse"><stop offset="0.00513" stop-color="#0082dc"/><stop offset="1" stop-color="#8cc8ff"/></linearGradient></defs><title>Cards</title><rect class="cls-1" width="160" height="240" rx="5.5" ry="5.5"/><path class="cls-2" d="M37.25776,30.07391a20.41837,20.41837,0,0,1-1.79395,8.85059,12.68365,12.68365,0,0,1-5.11328,5.7002l6.46777,5.63965L34.74409,52.1198l-7.25-6.27441a15.02572,15.02572,0,0,1-4.0752.56152,12.91175,12.91175,0,0,1-12.10645-7.67773A19.90987,19.90987,0,0,1,9.55464,30.2448V26.26531a20.4257,20.4257,0,0,1,1.7207-8.60547A12.78428,12.78428,0,0,1,23.37007,9.88348a13.31479,13.31479,0,0,1,7.29785,2.002,13.08382,13.08382,0,0,1,4.86914,5.7373,20.4067,20.4067,0,0,1,1.7207,8.61816Zm-3.002-3.85742q0-6.42041-2.90527-10.05859a9.65594,9.65594,0,0,0-7.98047-3.6377A9.59155,9.59155,0,0,0,15.498,16.17059Q12.55659,19.821,12.55659,26.363v3.71094q0,6.32373,2.917,10.02246a9.57458,9.57458,0,0,0,7.94531,3.69824,9.58453,9.58453,0,0,0,7.95605-3.6377q2.87988-3.63721,2.88086-10.15625Z"/><path class="cls-2" d="M150.05561,176.39617a20.41692,20.41692,0,0,1-1.79395,8.84961,12.69119,12.69119,0,0,1-5.11328,5.70117l6.46777,5.63867-2.07422,1.85547-7.25-6.27344a15.063,15.063,0,0,1-4.0752.56055,12.91175,12.91175,0,0,1-12.10645-7.67773,19.90987,19.90987,0,0,1-1.75781-8.48437v-3.97852a20.43028,20.43028,0,0,1,1.7207-8.60645,12.78428,12.78428,0,0,1,12.09473-7.77637,13.31479,13.31479,0,0,1,7.29785,2.002,13.092,13.092,0,0,1,4.86914,5.73828,20.40526,20.40526,0,0,1,1.7207,8.61719Zm-3.002-3.85742q0-6.42187-2.90527-10.05859a10.44114,10.44114,0,0,0-15.85254.01172q-2.94141,3.65039-2.94141,10.19336v3.71094q0,6.32227,2.917,10.02148a10.44925,10.44925,0,0,0,15.90137.06055q2.87988-3.63574,2.88086-10.15625Z"/><path class="cls-2" d="M17.97966,75.77685a6.05611,6.05611,0,0,0,5.5292-3.68615A6.05871,6.05871,0,0,0,29.038,75.77683a5.42211,5.42211,0,0,0,5.5292-5.52922c0-4.3365-4.66048-7.689-11.05836-14.13019-6.3979,6.44117-11.0584,9.79373-11.0584,14.13023A5.42207,5.42207,0,0,0,17.97966,75.77685Z"/><path class="cls-2" d="M22.52919,69.99163V78.4725l-4.33648,0v2.27093l4.3365.00005,1.95911,0,4.3365.00005V78.47258l-4.33652-.00006h0V69.99165"/><path class="cls-2" d="M130.77826,222.09909a6.05611,6.05611,0,0,0,5.5292-3.68615,6.05871,6.05871,0,0,0,5.52919,3.68613,5.42211,5.42211,0,0,0,5.5292-5.52922c0-4.3365-4.66048-7.689-11.05836-14.13019-6.3979,6.44117-11.0584,9.79373-11.0584,14.13023A5.42207,5.42207,0,0,0,130.77826,222.09909Z"/><path class="cls-2" d="M135.32779,216.31386v8.48087l-4.33648,0v2.27093l4.3365.00005,1.95911,0,4.3365.00005v-2.27093l-4.33652-.00006h0v-8.48087"/></svg>