<svg id="Layer_1" data-name="Layer 1" xmlns="http://www.w3.org/2000/svg" xmlns:xlink="http://www.w3.org/1999/xlink" viewBox="0 0 160 240"><defs><style>.cls-1{fill:url(#linear-gradient);}.cls-2{fill:#fff;}</style><linearGradient id="linear-gradient" x1="-18.38909" y1="21.61091" x2="178.38909" y2="218.38909" gradientUnits="userSpaceOnUse"><stop offset="0.00513" stop-color="#027996"/><stop offset="1" stop-color="#7fc473"/></linearGradient></defs><title>Cards</title><rect class="cls-1" width="160" height="240" rx="5.5" ry="5.5"/><path class="cls-2" d="M12.66367,45.91861h-3.002V10.37174h3.002Z"/><path class="cls-2" d="M39.5875,31.0983q0,7.52051-2.75781,11.41406a9.32283,9.32283,0,0,1-8.12793,3.89453,9.41233,9.41233,0,0,1-8.0791-3.82129Q17.816,38.76529,17.74277,31.46549v-6.373q0-7.49414,2.78223-11.35156a9.391,9.391,0,0,1,8.12793-3.85742,9.438,9.438,0,0,1,8.05469,3.72266q2.7832,3.72363,2.87988,10.97461Zm-2.92871-6.37109q0-6.104-1.98926-9.22852a6.64845,6.64845,0,0,0-6.0166-3.125,6.657,6.657,0,0,0-5.95508,3.05078q-2.00244,3.05273-2.05078,9.00977v6.98242q0,6.0791,2.0625,9.30078a6.68219,6.68219,0,0,0,5.99219,3.22266,6.58224,6.58224,0,0,0,5.91895-3.14844q2.01416-3.14941,2.03809-9.22852Z"/><path class="cls-2" d="M125.46152,192.2399h-3.002V156.693h3.002Z"/><path class="cls-2" d="M152.38535,177.42057q0,7.52051-2.75781,11.41406a10.44076,10.44076,0,0,1-16.207.07227q-2.80664-3.82031-2.87988-11.12012v-6.37207q0-7.49414,2.78223-11.35254a10.53214,10.53214,0,0,1,16.18262-.13379q2.7832,3.72363,2.87988,10.97363Zm-2.92871-6.37207q0-6.104-1.98926-9.22852a7.34534,7.34534,0,0,0-11.97168-.07324q-2.00244,3.05273-2.05078,9.00879v6.98242q0,6.0791,2.0625,9.30176a6.68219,6.68219,0,0,0,5.99219,3.22266,6.583,6.583,0,0,0,5.91895-3.14941q2.01416-3.14941,2.03809-9.22852Z"/><path class="cls-2" d="M31.28938,64.77255a5.245,5.245,0,0,0-5.09791,4.03958l-1.68968,0V66.16832a5.259,5.259,0,1,0-1.95911.00268v2.64109l-1.71651,0a5.27615,5.27615,0,1,0,.07946,1.95906l1.63706,0v8.05567l-4.33648,0v2.27093l4.3365.00005,1.95911,0,4.3365.00005V78.82691l-4.33652-.00006h0V70.77117l1.61023,0a5.24242,5.24242,0,1,0,5.17736-5.99864Z"/><path class="cls-2" d="M144.088,211.09479a5.245,5.245,0,0,0-5.09791,4.03958l-1.68968,0v-2.64379a5.259,5.259,0,1,0-1.95911.00268v2.64109l-1.71651,0a5.27615,5.27615,0,1,0,.07946,1.95906l1.63706,0v8.05567l-4.33648,0V227.42l4.3365.00005,1.95911,0,4.3365.00005v-2.27093l-4.33652-.00006h0v-8.05567l1.61023,0a5.24242,5.24242,0,1,0,5.17736-5.99864Z"/></svg>