<svg id="Layer_1" data-name="Layer 1" xmlns="http://www.w3.org/2000/svg" xmlns:xlink="http://www.w3.org/1999/xlink" viewBox="0 0 160 240"><defs><style>.cls-1{fill:url(#linear-gradient);}.cls-2{fill:#fff;}</style><linearGradient id="linear-gradient" x1="-18.38909" y1="21.61091" x2="178.38909" y2="218.38909" gradientUnits="userSpaceOnUse"><stop offset="0.00513" stop-color="#ed3973"/><stop offset="1" stop-color="#f58a4a"/></linearGradient></defs><title>Cards</title><rect class="cls-1" width="160" height="240" rx="5.5" ry="5.5"/><path class="cls-2" d="M12.66367,45.91838h-3.002V10.37151h3.002Z"/><path class="cls-2" d="M39.5875,31.099q0,7.52051-2.75781,11.41406a9.32211,9.32211,0,0,1-8.12793,3.89355,9.414,9.414,0,0,1-8.0791-3.82031Q17.816,38.766,17.74277,31.46526V25.09319q0-7.49414,2.78223-11.35254a9.39336,9.39336,0,0,1,8.12793-3.85742,9.43874,9.43874,0,0,1,8.05469,3.72363q2.7832,3.72363,2.87988,10.97363ZM36.65879,24.727q0-6.10254-1.98926-9.22852a6.65043,6.65043,0,0,0-6.0166-3.125,6.65573,6.65573,0,0,0-5.95508,3.05176Q20.69541,18.478,20.64707,24.434v6.98242q0,6.0791,2.0625,9.30176a6.68219,6.68219,0,0,0,5.99219,3.22266,6.58305,6.58305,0,0,0,5.91895-3.14941q2.01416-3.14941,2.03809-9.22852Z"/><path class="cls-2" d="M125.46152,192.23967h-3.002V156.6928h3.002Z"/><path class="cls-2" d="M152.38535,177.42131q0,7.519-2.75781,11.41309a9.3198,9.3198,0,0,1-8.12793,3.89355,9.414,9.414,0,0,1-8.0791-3.82031q-2.80664-3.82031-2.87988-11.12109v-6.37109q0-7.49561,2.78223-11.35352a10.53214,10.53214,0,0,1,16.18262-.13379q2.7832,3.72363,2.87988,10.97363Zm-2.92871-6.373q0-6.10254-1.98926-9.22852a7.34466,7.34466,0,0,0-11.97168-.07227q-2.00244,3.05127-2.05078,9.00781v6.98242q0,6.0791,2.0625,9.30273a6.68219,6.68219,0,0,0,5.99219,3.22266,6.58386,6.58386,0,0,0,5.91895-3.15039q2.01416-3.14941,2.03809-9.22852Z"/><path class="cls-2" d="M29.8081,57.23181a6.89952,6.89952,0,0,0-6.29924,4.1995,6.90253,6.90253,0,0,0-6.29924-4.1995,6.17722,6.17722,0,0,0-6.29924,6.29924c0,4.94043,5.30956,8.75987,12.59848,16.09807,7.28892-7.3382,12.59848-11.15764,12.59848-16.09807A6.17722,6.17722,0,0,0,29.8081,57.23181Z"/><path class="cls-2" d="M142.60671,203.554a6.89952,6.89952,0,0,0-6.29924,4.1995,6.90253,6.90253,0,0,0-6.29924-4.1995,6.17722,6.17722,0,0,0-6.29924,6.29924c0,4.94043,5.30956,8.75987,12.59848,16.09807,7.28892-7.3382,12.59849-11.15764,12.59849-16.09807A6.17722,6.17722,0,0,0,142.60671,203.554Z"/></svg>