<svg id="Layer_1" data-name="Layer 1" xmlns="http://www.w3.org/2000/svg" xmlns:xlink="http://www.w3.org/1999/xlink" viewBox="0 0 160 240"><defs><style>.cls-1{fill:url(#linear-gradient);}.cls-2{fill:#fff;}</style><linearGradient id="linear-gradient" x1="-18.38909" y1="21.61091" x2="178.38909" y2="218.38909" gradientUnits="userSpaceOnUse"><stop offset="0.00513" stop-color="#0082dc"/><stop offset="1" stop-color="#8cc8ff"/></linearGradient></defs><title>Cards</title><rect class="cls-1" width="160" height="240" rx="5.5" ry="5.5"/><path class="cls-2" d="M12.66367,45.91863h-3.002V10.37176h3.002Z"/><path class="cls-2" d="M39.5875,31.0993q0,7.52051-2.75781,11.41406a9.32211,9.32211,0,0,1-8.12793,3.89355,9.414,9.414,0,0,1-8.0791-3.82031Q17.816,38.76629,17.74277,31.46551V25.09344q0-7.49414,2.78223-11.35254a9.39336,9.39336,0,0,1,8.12793-3.85742,9.43874,9.43874,0,0,1,8.05469,3.72363q2.7832,3.72363,2.87988,10.97363Zm-2.92871-6.37207q0-6.10254-1.98926-9.22852a6.65043,6.65043,0,0,0-6.0166-3.125,6.65573,6.65573,0,0,0-5.95508,3.05176q-2.00244,3.05273-2.05078,9.00879v6.98242q0,6.0791,2.0625,9.30176a6.68219,6.68219,0,0,0,5.99219,3.22266,6.58305,6.58305,0,0,0,5.91895-3.14941q2.01416-3.14941,2.03809-9.22852Z"/><path class="cls-2" d="M125.46152,192.2409h-3.002V156.694h3.002Z"/><path class="cls-2" d="M152.38535,177.42156q0,7.52051-2.75781,11.41406a10.44076,10.44076,0,0,1-16.207.07227q-2.80664-3.82031-2.87988-11.12012V171.4157q0-7.49414,2.78223-11.35254a10.53214,10.53214,0,0,1,16.18262-.13379q2.7832,3.72363,2.87988,10.97363Zm-2.92871-6.37207q0-6.104-1.98926-9.22852a7.34534,7.34534,0,0,0-11.97168-.07324q-2.00244,3.05273-2.05078,9.00879v6.98242q0,6.0791,2.0625,9.30176a6.68219,6.68219,0,0,0,5.99219,3.22266,6.583,6.583,0,0,0,5.91895-3.14941q2.01416-3.14941,2.03809-9.22852Z"/><path class="cls-2" d="M17.97966,75.77685a6.05611,6.05611,0,0,0,5.5292-3.68615A6.05871,6.05871,0,0,0,29.038,75.77683a5.42211,5.42211,0,0,0,5.5292-5.52922c0-4.3365-4.66048-7.689-11.05836-14.13019-6.3979,6.44117-11.0584,9.79373-11.0584,14.13023A5.42207,5.42207,0,0,0,17.97966,75.77685Z"/><path class="cls-2" d="M22.52919,69.99163V78.4725l-4.33648,0v2.27093l4.3365.00005,1.95911,0,4.3365.00005V78.47258l-4.33652-.00006h0V69.99165"/><path class="cls-2" d="M130.77826,222.09909a6.05611,6.05611,0,0,0,5.5292-3.68615,6.05871,6.05871,0,0,0,5.52919,3.68613,5.42211,5.42211,0,0,0,5.5292-5.52922c0-4.3365-4.66048-7.689-11.05836-14.13019-6.3979,6.44117-11.0584,9.79373-11.0584,14.13023A5.42207,5.42207,0,0,0,130.77826,222.09909Z"/><path class="cls-2" d="M135.32779,216.31386v8.48087l-4.33648,0v2.27093l4.3365.00005,1.95911,0,4.3365.00005v-2.27093l-4.33652-.00006h0v-8.48087"/></svg>